<!--?xml version="1.0" encoding="utf-8"?-->
<svg viewBox="11.475 230.479 686.341 241.106" xmlns="http://www.w3.org/2000/svg" style="">
  <g id="Layer_1" transform="matrix(1, 0, 0, 1, 95.26404713487693, 208.6794769865196)">
    <g>
      <defs>
        <path id="SVGID_00000049219894329216036890000017809445486988616894_" width="1315.3" height="217.9" d="M-227.7 31.6 L1087.6 31.6 L1087.6 249.5 L-227.7 249.5 Z" class="poaCHkMX_0"></path>
      </defs>
      <clipPath id="SVGID_00000106861174223117307140000011373256094887936162_">
        <path width="1315.3" height="217.9" style="overflow: visible;" d="M-227.7 31.6 L1087.6 31.6 L1087.6 249.5 L-227.7 249.5 Z" class="poaCHkMX_1"></path>
      </clipPath>
      <path style="clip-path:url(#SVGID_00000106861174223117307140000011373256094887936162_);fill:none;stroke:#9AD19F;stroke-linejoin:round;stroke-miterlimit:10;" d="
			M1087.6,247c0,0-794.1-0.1-811.4-0.5c-17.3-0.4-69.7,1.1-69.7,1.1s13.1,2.6,33.5,0.6c20.4-2.1,25.9-16.6,28.2-28.9
			c2.3-12.3-7.6-26.8-14.5-33.3c-6.9-6.5-7,2.1-18.7,2.3c-11.7,0.2-20.5-11.2-26.8-6.1c-6.3,5.1-9.1,12.1-5.5,7
			c3.6-5.1,9.5-8.5,20.6-5.6c11.1,2.9,32.3-0.4,20.1-11.4c-12.2-11-11.4-21.8-11.4-21.8s-0.7-22.8,0.7-27.1c1.4-4.4,1-7-3.4-5.4
			c-4.4,1.6-10.9,0.5-7.6,1.9c3.3,1.4,10.4,1.4,13.9-1.5c3.4-2.9-0.4-4.5-11-4.9c-12.4-0.5-15.4,4.3-11.9,6c3.4,1.7,3,6.8,3,6.8
			s0.3,18.6,0.1,22.6c-0.2,4,1.5,12.1-13.3,27.4c-14.8,15.3-21.4,31.5-20.6,45c0.8,13.5,13.8,19.6-0.8,20.7
			c-14.6,1.1-46.5,2.6-37.6,5.3c9,2.7,34.8,1.6,53.9-0.2c19.1-1.8,6.1-27.9,6.1-27.9s-11.5-41.4-18.9-62
			c-7.4-20.6-11.7-43.1-11.7-43.1s-0.4-30.3,0.8-35.4c1.3-5.1-1.4-7.2-8.6-5.4c-7.2,1.8-30.8,1.3-29.3,1.5
			c1.5,0.2,33.3,2.3,41.2-1.7c7.9-4-1.7-7.3-8.8-8.4c-7.1-1.1-28.5-0.8-41.2-0.2c-12.7,0.5-12.8,8.2-6.7,10.2c6.1,2,5.3,7.2,5.3,7.2
			s-0.1,24.8,0.1,34.2c0.3,9.4-4.8,10.4-5.1,27.3c-0.3,16.9,8,25.2,14.4,17.3c6.4-7.9,17.7-5.8,28-5.1c10.3,0.6,10.9-23.7,10.9-23.7
			s-0.3,3.3-0.6,13.2c-0.3,9.9-6.9,17.7-21.3,13.9c-14.4-3.8-17.3,16.1-28,14.1c-10.6-2.1-6.8-24.3-6.8-24.3S98.5,213,94.6,226.8
			c-3.9,13.8,5.2,19.7,14.7,20.3c9.6,0.6,18.6,0,18.5-4.1c-0.1-4.1-3.4-6.7-10.5-7.4c-7.1-0.6-5.7-9.4-5.7-9.4l0.5-68.9
			c0,0-0.2-53.6,0.1-62.5c0.4-8.9-4.9-6.2-8.8-3.7c-3.8,2.5-10.2-0.4-10.2-0.4s4.4,3.1,7.9-1.6c3.5-4.7,11.1-3.2,11.1-3.2
			s0.6-38,0.7-44.6c0.1-6.6-21.1-2.4-21.1-2.4s0.8-0.1,9.6-0.1c8.8,0,11.6,0.6,15.7-4c4-4.6-13.8-2-23.9-2.7
			c-10-0.6-11.6,4.3-7.7,5.1c3.9,0.9,3.6,7,3.6,7l-0.3,65.6l-0.7,111.7c0,0,1,13.6-2.9,13.7c-13.3,0.5-16.2,1.9-16,7.7
			c0.2,3.9,10,6.5,9.8,0.4c-0.3-6.1,0.5-11.5-3.6-14.1c-4.1-2.6-1-31.9-1.4-39.4c-0.4-7.5-3.9-7.3-13.3-7.5
			c-9.4-0.1-115.4,0.4-115.4,0.4s-4.1-0.4-3.8,5.5c0.3,5.9,0.3,23.7,0.3,23.7s-3.1,6.7,12.8,6c16-0.7,110.2,0.4,110.2,0.4
			s2.6,2.1,2.1,6.8c-0.5,4.7-5.5,6-4.3,10.9s-2,4.4-15.3,4.4s-93.6-1.3-93.6-1.3s0.3-3.7,0-6.2c-0.3-2.5-4.4-1.3-4.1-6
			c0.3-4.7,0.3-33.4,0.3-33.4s-0.6-5.5,5.9-5c6.5,0.5,106.2,0.3,106.2,0.3s4.6-0.5,5,5.8c0.3,6.3-0.3,15.1-0.3,15.1s0.6,2.1-9,2.3
			c-9.6,0.2-104,0-104,0l101.9,1.6l-0.1,14.4c0,0-0.1,8.9-6,9.6c-6.1,0.7-12.2,0.9-12.6-9.7c-0.3-10.7,0.2-78.8,0.2-78.8
			s1.2-5-1-5.4c-2.2-0.4-2.2-6.5-1.9-9.8c0.4-3.3,6.4-3.5,13.5-3.3c7,0.1,9.7-0.5,10.3,3.3c0.5,3.8,0.9,8.1-0.6,8.8
			c-1.1,0.6-1.9,0-2.1,2.6c0,0.4,0.8,5.9-14.7,1.9c-0.6-0.2,14.5-1.3,14.6,1.9c0.3,6.9-0.5,60.1-0.5,60.1s0.6,6.3-8.6,6.2
			c-9.2-0.1-29.1-1.2-29.1,5.3c0,6.5,0.5,17.1-10.2,16.8c-10.6-0.3-9.5-8.3-9.6-15c0-7.5,0.4-75.8,0.4-75.8s0.3-3.6-1.1-4
			c-1.4-0.4-1.7-2-1.8-5.1c-0.1-3.1,0.3-7.2,4.4-7.4c4.1-0.2,18.8,0.3,18.8,0.3s3-0.8,3.1,3.4c0.2,4.2,0.5,8.1-1.4,8.3
			c-1.1,0.1-2.3,1.4-2.2,3.7c0.3,3.9-18.2,0.7-15.5,0.4c13.7-1.5,15.5,0.6,15.6,6.2c0.2,6.2-0.3,54.8-0.3,54.8s-3.4,8.3-19.5,7.9
			c-16.1-0.4-18,2.2-17.9,7.1c0.2,4.9-1,14.6-10.8,14.5c-11.1-0.1-10.2-14.5-10.2-14.5l0.1-78.4c0,0,0.6-1.4-1.4-1.4
			c-1.9,0.1-1.9-3.5-1.8-6.9c0-3.7,1.3-5,6.2-5.1c5-0.1,16.5,0.3,16.5,0.3s4.7,0.1,4.6,4.7c-0.1,7.7-0.6,7.7-2.1,7.9
			c-1.5,0.1-1.4,2.2-1.4,2.2c-0.1,4.1-8.2,2.3-15.1,1.5c-2-0.3,15.2-2.5,15.1,2.8c-0.3,16.9,0.3,57.8,0.3,57.8s1.8,7.1-9.7,7
			c-11.5-0.1-27.9,3.4-28,9.6c-0.1,6.2-5.2,6-4.8,11.1s-4.2,9.3,10.4,9.7s48.5,0.9,48.5,0.9l-224-1.3 M1087.6,247
			c0,0-794.1-0.1-811.4-0.5c-17.3-0.4-69.7,1.1-69.7,1.1s13.1,2.6,33.5,0.6c20.4-2.1,25.9-16.6,28.2-28.9
			c2.3-12.3-7.6-26.8-14.5-33.3c-6.9-6.5-7,2.1-18.7,2.3c-11.7,0.2-20.5-11.2-26.8-6.1c-6.3,5.1-9.1,12.1-5.5,7
			c3.6-5.1,9.5-8.5,20.6-5.6c11.1,2.9,32.3-0.4,20.1-11.4c-12.2-11-11.4-21.8-11.4-21.8s-0.7-22.8,0.7-27.1c1.4-4.4,1-7-3.4-5.4
			c-4.4,1.6-10.9,0.5-7.6,1.9c3.3,1.4,10.4,1.4,13.9-1.5c3.4-2.9-0.4-4.5-11-4.9c-12.4-0.5-15.4,4.3-11.9,6c3.4,1.7,3,6.8,3,6.8
			s0.3,18.6,0.1,22.6c-0.2,4,1.5,12.1-13.3,27.4c-14.8,15.3-21.4,31.5-20.6,45c0.8,13.5,13.8,19.6-0.8,20.7
			c-14.6,1.1-46.5,2.6-37.6,5.3c9,2.7,34.8,1.6,53.9-0.2c19.1-1.8,6.1-27.9,6.1-27.9s-11.5-41.4-18.9-62
			c-7.4-20.6-11.7-43.1-11.7-43.1s-0.4-30.3,0.8-35.4c1.3-5.1-1.4-7.2-8.6-5.4c-7.2,1.8-30.8,1.3-29.3,1.5
			c1.5,0.2,33.3,2.3,41.2-1.7c7.9-4-1.7-7.3-8.8-8.4c-7.1-1.1-28.5-0.8-41.2-0.2c-12.7,0.5-12.8,8.2-6.7,10.2c6.1,2,5.3,7.2,5.3,7.2
			s-0.1,24.8,0.1,34.2c0.3,9.4-4.8,10.4-5.1,27.3c-0.3,16.9,8,25.2,14.4,17.3c6.4-7.9,17.7-5.8,28-5.1c10.3,0.6,10.9-23.7,10.9-23.7
			s-0.3,3.3-0.6,13.2c-0.3,9.9-6.9,17.7-21.3,13.9c-14.4-3.8-17.3,16.1-28,14.1c-10.6-2.1-6.8-24.3-6.8-24.3S98.5,213,94.6,226.8
			c-3.9,13.8,5.2,19.7,14.7,20.3c9.6,0.6,18.6,0,18.5-4.1c-0.1-4.1-3.4-6.7-10.5-7.4c-7.1-0.6-5.7-9.4-5.7-9.4l0.5-68.9
			c0,0-0.2-53.6,0.1-62.5c0.4-8.9-4.9-6.2-8.8-3.7c-3.8,2.5-10.2-0.4-10.2-0.4s4.4,3.1,7.9-1.6c3.5-4.7,11.1-3.2,11.1-3.2
			s0.6-38,0.7-44.6c0.1-6.6-21.1-2.4-21.1-2.4s0.8-0.1,9.6-0.1c8.8,0,11.6,0.6,15.7-4c4-4.6-13.8-2-23.9-2.7
			c-10-0.6-11.6,4.3-7.7,5.1c3.9,0.9,3.6,7,3.6,7l-0.3,65.6l-0.7,111.7c0,0,1,13.6-2.9,13.7c-13.3,0.5-16.2,1.9-16,7.7
			c0.2,3.9,10,6.5,9.8,0.4c-0.3-6.1,0.5-11.5-3.6-14.1c-4.1-2.6-1-31.9-1.4-39.4c-0.4-7.5-3.9-7.3-13.3-7.5
			c-9.4-0.1-115.4,0.4-115.4,0.4s-4.1-0.4-3.8,5.5c0.3,5.9,0.3,23.7,0.3,23.7s-3.1,6.7,12.8,6c16-0.7,110.2,0.4,110.2,0.4
			s2.6,2.1,2.1,6.8c-0.5,4.7-5.5,6-4.3,10.9s-2,4.4-15.3,4.4s-93.6-1.3-93.6-1.3s0.3-3.7,0-6.2c-0.3-2.5-4.4-1.3-4.1-6
			c0.3-4.7,0.3-33.4,0.3-33.4s-0.6-5.5,5.9-5c6.5,0.5,106.2,0.3,106.2,0.3s4.6-0.5,5,5.8c0.3,6.3-0.3,15.1-0.3,15.1s0.6,2.1-9,2.3
			c-9.6,0.2-104,0-104,0l101.9,1.6l-0.1,14.4c0,0-0.1,8.9-6,9.6c-6.1,0.7-12.2,0.9-12.6-9.7c-0.3-10.7,0.2-78.8,0.2-78.8
			s1.2-5-1-5.4c-2.2-0.4-2.2-6.5-1.9-9.8c0.4-3.3,6.4-3.5,13.5-3.3c7,0.1,9.7-0.5,10.3,3.3c0.5,3.8,0.9,8.1-0.6,8.8
			c-1.1,0.6-1.9,0-2.1,2.6c0,0.4,0.8,5.9-14.7,1.9c-0.6-0.2,14.5-1.3,14.6,1.9c0.3,6.9-0.5,60.1-0.5,60.1s0.6,6.3-8.6,6.2
			c-9.2-0.1-29.1-1.2-29.1,5.3c0,6.5,0.5,17.1-10.2,16.8c-10.6-0.3-9.5-8.3-9.6-15c0-7.5,0.4-75.8,0.4-75.8s0.3-3.6-1.1-4
			c-1.4-0.4-1.7-2-1.8-5.1c-0.1-3.1,0.3-7.2,4.4-7.4c4.1-0.2,18.8,0.3,18.8,0.3s3-0.8,3.1,3.4c0.2,4.2,0.5,8.1-1.4,8.3
			c-1.1,0.1-2.3,1.4-2.2,3.7c0.3,3.9-18.2,0.7-15.5,0.4c13.7-1.5,15.5,0.6,15.6,6.2c0.2,6.2-0.3,54.8-0.3,54.8s-3.4,8.3-19.5,7.9
			c-16.1-0.4-18,2.2-17.9,7.1c0.2,4.9-1,14.6-10.8,14.5c-11.1-0.1-10.2-14.5-10.2-14.5l0.1-78.4c0,0,0.6-1.4-1.4-1.4
			c-1.9,0.1-1.9-3.5-1.8-6.9c0-3.7,1.3-5,6.2-5.1c5-0.1,16.5,0.3,16.5,0.3s4.7,0.1,4.6,4.7c-0.1,7.7-0.6,7.7-2.1,7.9
			c-1.5,0.1-1.4,2.2-1.4,2.2c-0.1,4.1-8.2,2.3-15.1,1.5c-2-0.3,15.2-2.5,15.1,2.8c-0.3,16.9,0.3,57.8,0.3,57.8s1.8,7.1-9.7,7
			c-11.5-0.1-27.9,3.4-28,9.6c-0.1,6.2-5.2,6-4.8,11.1s-4.2,9.3,10.4,9.7s48.5,0.9,48.5,0.9l-224-1.3" class="poaCHkMX_2"></path>
    </g>
  </g>
<style data-made-with="vivus-instant">.poaCHkMX_0{stroke-dasharray:3067 3069;stroke-dashoffset:3068;animation:poaCHkMX_draw_0 7200ms ease-in-out 0ms infinite,poaCHkMX_fade 7200ms linear 0ms infinite;}.poaCHkMX_1{stroke-dasharray:3067 3069;stroke-dashoffset:3068;animation:poaCHkMX_draw_1 7200ms ease-in-out 0ms infinite,poaCHkMX_fade 7200ms linear 0ms infinite;}.poaCHkMX_2{stroke-dasharray:9809 9811;stroke-dashoffset:9810;animation:poaCHkMX_draw_2 7200ms ease-in-out 0ms infinite,poaCHkMX_fade 7200ms linear 0ms infinite;}@keyframes poaCHkMX_draw{100%{stroke-dashoffset:0;}}@keyframes poaCHkMX_fade{0%{stroke-opacity:1;}94.44444444444444%{stroke-opacity:1;}100%{stroke-opacity:0;}}@keyframes poaCHkMX_draw_0{11.11111111111111%{stroke-dashoffset: 3068}52.77777777777778%{ stroke-dashoffset: 0;}100%{ stroke-dashoffset: 0;}}@keyframes poaCHkMX_draw_1{11.11111111111111%{stroke-dashoffset: 3068}52.77777777777778%{ stroke-dashoffset: 0;}100%{ stroke-dashoffset: 0;}}@keyframes poaCHkMX_draw_2{11.11111111111111%{stroke-dashoffset: 9810}52.77777777777778%{ stroke-dashoffset: 0;}100%{ stroke-dashoffset: 0;}}</style></svg>