<?xml version="1.0" encoding="utf-8"?>
<!-- Generator: Adobe Illustrator 27.9.1, SVG Export Plug-In . SVG Version: 6.00 Build 0)  -->
<svg version="1.1" xmlns="http://www.w3.org/2000/svg" xmlns:xlink="http://www.w3.org/1999/xlink" x="0px" y="0px"
	 viewBox="0 0 792 612" style="enable-background:new 0 0 792 612;" xml:space="preserve">
<style type="text/css">
	.st0{clip-path:url(#SVGID_00000154423438950147702420000015076453776631986871_);fill:none;stroke:#5967B0;stroke-miterlimit:10;}
	.st1{clip-path:url(#SVGID_00000154423438950147702420000015076453776631986871_);fill:#5967B0;}
	
		.st2{clip-path:url(#SVGID_00000154423438950147702420000015076453776631986871_);fill:none;stroke:#5967B0;stroke-width:0.8;stroke-linecap:round;stroke-linejoin:round;stroke-miterlimit:10;}
	
		.st3{clip-path:url(#SVGID_00000026135521793899537450000016415306735946187401_);fill:none;stroke:#9AD19F;stroke-linejoin:round;stroke-miterlimit:10;}
</style>
<g id="Menina">
	<g>
		<defs>
			<rect id="SVGID_1_" x="-453.4" y="268.2" width="1270.3" height="331.1"/>
		</defs>
		<clipPath id="SVGID_00000161631186931586198370000012812861955128833411_">
			<use xlink:href="#SVGID_1_"  style="overflow:visible;"/>
		</clipPath>
		
			<line style="clip-path:url(#SVGID_00000161631186931586198370000012812861955128833411_);fill:none;stroke:#5967B0;stroke-miterlimit:10;" x1="669.1" y1="594.5" x2="-453.4" y2="594.5"/>
		<path style="clip-path:url(#SVGID_00000161631186931586198370000012812861955128833411_);fill:#5967B0;" d="M694.9,303
			c2.5,0,4.4,1.3,5.6,3.6c0.1,0.1,0.1,0.2,0.2,0.3c0.1,0.2,0.2,0.4,0.3,0.7c0.4,1.3,0.5,2.6,0.3,4c-0.1,0.4-0.2,0.9-0.4,1.4
			c0,0.1,0,0.2,0.1,0.3c1.7,0.9,2.6,2.4,2.5,3.9c-0.1,1.2-0.6,2-1.3,3c-0.7,1-1.3,1.8-1.9,2.8c0,0.1,0,0.2,0,0.2
			c0,0.1,0.1,0.1,0.2,0.1c5.7,0.1,8.7,1.7,9.3,5.1c0.6,3.4-2,5.7-4.7,7.8c0,0,0,0,0,0.1c0,0,0,0.1-0.1,0.1l-1.3,1
			c-0.5,0.4-1.1,0.8-1.5,1.2c0,0-0.1,0.1-0.1,0.1c-0.4,0.5-1,1.3-1.7,1.8c0,0-0.1,0.1-0.1,0.1c-1,0.8-2,1.2-3.3,1.4
			c-0.4,0-0.7,0.1-1.1,0.1c-2.2,0-4.5-0.9-6.6-1.8c-1.5-0.6-3.1-1.2-4.6-1.5c-0.8-0.1-1.8-0.1-3-0.1l-0.8,0c-0.2,0-0.4,0-0.6,0
			c-0.2,0-0.4,0-0.6,0c-2,0-4.9-0.2-6.1-1.9c-0.9-1.4-0.6-3.3,1-5.6c0.1-0.1,0.1-0.2,0-0.3c-0.2-0.3-0.3-0.7-0.3-1.1
			c0-0.5,0.3-1.1,0.8-1.6c0,0,0.1-0.1,0.1-0.2c0-0.1,0-0.1-0.1-0.2c-0.1-0.1-0.4-0.4-0.4-0.9c0-0.4,0.1-0.7,0.4-1.2
			c0.4-0.6,0.8-1.2,1.1-1.9c0-0.1,0-0.2-0.1-0.3c-1.2-1.1-1.9-2.1-1.8-2.9c0-0.5,0.3-0.9,0.7-1.2c0.7-0.6,1.6-0.9,2.6-1.3
			c0.9-0.3,1.8-0.7,2.6-1.2c0.9-0.7,1.4-1.5,1.9-2.4c0,0,0,0,0-0.1c0.9-4.4,4-8.4,8-10.4c0.6-0.3,1.2-0.5,1.8-0.7
			c0.6-0.2,1.2-0.3,1.8-0.4l0.2,0c0.1,0,0.2,0,0.3,0C694.3,303,694.6,303,694.9,303 M592.5,269c0.1,0,0.1,0,0.2,0
			c2.2,0.4,5.7,7.4,6.7,9.6c0,0,0,0,0,0.1c0.9,0.9,1.7,1.9,2.5,2.8l0.7,0.8c0.9,1,2,1.6,3,2.3c0.7,0.4,1.3,0.8,1.9,1.3
			c1.5,1.1,2.8,2.5,3.8,3.8c0.4,0.5,0.6,1,0.8,1.5c0,0,0,0.1,0.1,0.1c2.1,1.7,4.2,3.5,6.2,5.3l2.6,2.2c1.9,1.6,3.9,3,5.9,4.3
			c1.7,1.1,3.5,2.3,5.1,3.6l1.1,0.9c4.4,3.6,9.3,7.6,11.9,12.6c0,0,0,0,0,0.1c1.5,1.5,3,3,4.4,4.5l0,0c1.7,1.8,3.4,3.6,5.2,5.2
			c1.1,1,2.5,1.8,3.7,2.6c2,1.2,3.8,2.4,5.2,4.2c0.3,0.4,0.5,0.8,0.8,1.2l0.1,0.2c0.1,0.2,0.2,0.4,0.2,0.6c0.5,1.5,0.4,2.8,0.2,4.7
			l-0.1,0.9c-0.1,1.3-0.2,2.7-0.2,4c-0.1,2.5-0.1,5-0.7,7.4c0,0.2-0.2,0.3-0.3,0.3c-0.1,0-0.2,0-0.3,0h0c-0.3,0-0.7-0.1-0.9-0.2
			c-0.3-0.2-0.5-0.4-0.7-0.6c-0.2-0.2-0.4-0.5-0.6-0.8c-0.3-0.4-0.7-0.9-1.1-1.4c-3.1-3.5-6.5-6-10.2-8.7l-1.4-1
			c-4.8-3.5-8.4-8.1-10.2-13.1c0,0,0-0.1-0.1-0.1c-1.8-1.6-4-3-6.2-4.3l-0.1,0c-1.3-0.8-2.4-1.5-3.5-2.3c-2.2-1.6-3.5-3.4-5.1-5.5
			l-0.1-0.1c-0.3-0.4-0.6-0.8-0.9-1.2c-0.9-1.2-1.7-2.4-2.6-3.6c-1.9-2.8-3.8-5.6-6.2-7.9c-2-1.9-2.6-2.7-3.4-4.6
			c0-0.1-0.1-0.1-0.1-0.1c-0.9-0.2-1.8-0.4-2.7-0.5c-0.9-0.2-1.7-0.4-2.4-1c-0.5-0.4-0.8-0.8-1.2-1.3c-0.2-0.3-0.5-0.6-0.7-0.8
			l-0.3-0.3c-0.4-0.4-1-1-1.5-1.4c0,0-0.1-0.1-0.1-0.1c0,0,0,0-0.1,0l-0.4,0.1c-1.1,0.4-2.6,0.9-3.8,0.9c-0.5,0-0.9-0.1-1.2-0.3
			c-0.4-0.2-0.7-0.7-0.8-1.2c0-0.1-0.1-0.2-0.2-0.2c-0.9-0.1-1.6-0.4-1.9-0.8c-0.5-0.6-0.4-1.3,0.2-1.9c0.1-0.1,0.1-0.1,0.1-0.2
			c0-0.1-0.1-0.1-0.1-0.2c-0.5-0.3-0.8-0.6-1-1c-0.2-0.6-0.1-1.2,0.5-1.5c0.1-0.1,0.1-0.2,0.1-0.3c-0.3-0.4-0.5-0.8-0.6-1.2
			c-0.2-0.7,0-1.3,0.5-1.9c0.6-0.8,1.4-1.2,2.4-1.7c0.3-0.1,0.6-0.3,0.9-0.5c0.2-0.1,0.3-0.2,0.5-0.3c0.1,0,0.1-0.1,0.1-0.2
			c0,0,0-0.1,0-0.2c-0.5-2.5-1-4.8-2-7c-0.1-0.2-0.4-0.6-0.7-1.1l0-0.1c-2-3-2.5-4.5-1.9-5.1C592.1,269.1,592.3,269,592.5,269
			 M703.8,337.9c0.1,0,0.2,0,0.2,0.1c0.1,0.1,0.2,0.3,0.1,0.4c0,0,0,0.1,0,0.1c0,0.1,0,0.1,0,0.2c-0.1,0.4-0.3,0.9-0.4,1.5l0,0.1
			c0,0.2-0.1,0.3-0.1,0.5c-0.1,0.8-0.2,1.5-0.2,2.2c0,1.3,0.2,2.5,0.4,3.7l0.1,0.4c0,0,0,0,0,0.1c1.2,2.4,2.2,4.4,1,6.1
			c-0.1,0.2-0.3,0.4-0.5,0.6c0,0-0.1,0.1-0.1,0.1c-0.4,0.3-0.7,0.5-1.1,0.7c-2.8,1.5-7.2,2.5-11.3,2.5c-1,0-1.9-0.1-2.8-0.2
			c-2.7-0.3-6.8-2.2-6.5-6c0.1-1.3,0.5-2.4,0.9-3.4c0.1-0.3,0.2-0.5,0.3-0.8c0.8-2.2,0.7-3.9-2.7-7c-0.1-0.1-0.2-0.3-0.1-0.4
			c0.1-0.1,0.2-0.2,0.4-0.2c1.2,0,2.2,0,2.9,0.1c1.5,0.3,3,0.9,4.6,1.5c0.6,0.2,1.2,0.5,1.8,0.7c0.1,0,0.2,0.1,0.4,0.1l0.3,0.1
			c0.5,0.2,0.9,0.3,1.2,0.4c0.2,0.1,0.4,0.1,0.6,0.1l0.2,0c0.4,0.1,0.8,0.2,1.1,0.2c0.3,0,0.5,0.1,0.8,0.1c0.1,0,0.2,0,0.2,0
			c0.1,0,0.2,0,0.2,0c0.4,0,0.8,0,1.2-0.1c1.3-0.2,2.4-0.7,3.4-1.4c0,0,0.1,0,0.1-0.1c0.1,0,0.1-0.1,0.2-0.2c0,0,0-0.1,0.1-0.1
			c0.7-0.6,1.3-1.3,1.8-1.8c0,0,0,0,0.1-0.1c0.3-0.3,0.7-0.6,1.2-1C703.7,337.9,703.7,337.9,703.8,337.9 M718,385.5
			c-1.1,0-2.7,0.9-4,1.7c-0.7,0.4-1.4,0.8-1.9,1c-0.6,0.2-1.5,0.4-2.4,0.5c-2,0.4-3.8,0.8-5,1.7c-0.1,0.1-0.2,0.1-0.2,0.1
			c0,0-0.1,0-0.1,0c-0.1-0.1-0.2-0.2-0.2-0.3c-0.5-3.7-5.3-7.9-7.8-9.7c-2.2-1.5-4.9-2.4-7.4-3.2c-2-0.6-4.1-1.3-6-2.3
			c-5.1-2.7-10.1-6.7-15.2-10.9c0,0-0.1-0.1-0.1-0.1c0-0.1-0.1-0.1-0.1-0.1c-1.3-0.5-3.1-1.4-4.2-2.7c-1.1-1.4-1.3-3.2-1.3-4.5
			c0-0.1,0.1-0.3,0.2-0.3c0.1,0,0.1-0.1,0.2-0.1c0.1,0,0.1,0,0.2,0c0.3,0.1,0.6,0.2,1,0.2c0.1,0,0.1,0,0.1,0c0.2,0,0.3,0,0.5,0
			c0,0,0,0,0.1,0c0,0,0,0,0.1,0c0.1,0,0.3-0.2,0.4-0.4c0.6-2.4,0.6-5,0.7-7.6c0-1.4,0.1-2.7,0.2-4l0.1-0.9c0.2-1.9,0.3-3.4-0.3-4.9
			c0,0,0,0,0-0.1c0-0.1,0-0.3,0.1-0.3c0.1-0.1,0.2-0.1,0.3-0.1c0,0,0,0,0,0c1.5,0.1,3.1,0.6,4.2,0.9l0.4,0.1c4.4,1.2,7.6,3.6,11,6.1
			c0.6,0.4,1.1,0.8,1.7,1.3c0.1,0.1,0.2,0.3,0.1,0.5c0,0.1-0.1,0.2-0.1,0.3c-0.4,1.1-0.8,2.2-0.9,3.5c-0.2,3.7,3.3,6,6.9,6.5
			c0.7,0.1,1.5,0.1,2.6,0.2c0.1,0,0.1,0,0.2,0c0,0,0.1,0,0.1,0c0,0,0.1,0,0.1,0c0.1,0,0.1,0,0.2,0c0.9,0,1.8-0.1,2.7-0.2
			c0.1,0,0.1,0,0.2,0l0.2,0c0.8-0.1,1.7-0.2,2.5-0.4l0.2,0c0.1,0,0.2,0,0.3-0.1c0.8-0.2,1.7-0.4,2.5-0.7c0.1,0,0.3-0.1,0.4-0.1
			l0.1,0c0.9-0.3,1.6-0.7,2.2-1c0.3-0.2,0.6-0.4,0.9-0.6c0.1,0,0.1-0.1,0.2-0.1c0,0,0.1,0,0.1,0c0.7,0.2,1.3,0.5,1.8,0.8
			c0,0,0,0,0.1,0c0.6,0.4,1.2,0.8,1.7,1.4c0.4,0.4,0.9,0.9,1.4,1.6l0,0c0,0,0.1,0.1,0.1,0.1c0.5,0.6,0.9,1.3,1.4,1.9
			c0.6,0.9,1.3,1.8,2,2.6c1.5,1.8,2.7,2.6,4.4,3c0.1,0,0.2,0.1,0.2,0.2c0,0.1,0.1,0.1,0.1,0.2c0.1,0.1,0.2,0.2,0.2,0.3l0.1,0.1
			c0.3,0.3,0.7,0.7,1.1,1.1c0.4,0.3,0.8,0.7,1.1,1c2.4,2.7,3.4,5.3,3.4,9.2c0,2.5-0.4,4.8-1.4,7.6c-0.4,1.2-0.9,2.3-1.3,3.4l0,0.1
			c-0.1,0.2-0.2,0.2-0.4,0.2c0,0,0,0-0.1,0c-0.2,0-0.3-0.2-0.3-0.4c0-0.1,0-0.3-0.1-0.4c0-0.1,0-0.2,0-0.2l0-0.2
			c0-0.1,0-0.3-0.1-0.4c-0.1-0.2-0.1-0.4-0.2-0.6l0-0.1c0-0.1-0.1-0.1-0.1-0.2c0-0.1-0.1-0.1-0.1-0.2c-0.1-0.2-0.3-0.3-0.4-0.4
			c-0.1-0.1-0.1-0.1-0.2-0.2c0,0-0.1-0.1-0.1-0.1c-0.3-0.2-0.5-0.3-0.9-0.4C718.2,385.5,718.1,385.5,718,385.5 M728.1,392.7
			c-0.1,0-0.2,0-0.2,0.1c-1.7,0.6-2.8,0.9-3.7,1.1c-2.1,0.5-2.1,0.7-3.5,3.4l-0.3,0.5c-0.1,0.1-0.2,0.2-0.3,0.2c0,0,0,0,0,0
			c-0.2,0-0.3-0.1-0.3-0.2c-0.1-0.3-0.2-0.6-0.3-0.8c0,0,0-0.1,0-0.1c0-0.1,0-0.2,0-0.3c0-0.1,0-0.3,0-0.4c0-0.4,0.1-0.9,0.3-1.4
			c0.1-0.5,0.2-1,0.3-1.5c0.3-1.1,0.7-2.2,1.1-3.1c0,0,0-0.1,0-0.1c0-0.1,0.1-0.1,0.1-0.2c0,0,0-0.1,0-0.1c0.5-1.4,1.1-2.8,1.6-4.2
			c1-2.8,1.4-5.1,1.4-7.7c0-4.1-1-6.7-3.5-9.5c-0.4-0.4-0.8-0.8-1.2-1.1c-0.5-0.4-1-0.8-1.4-1.4c0,0,0,0,0,0c0-0.1-0.1-0.1-0.1-0.2
			c0,0,0,0,0,0c-0.1-1.3-0.4-2.5-0.7-3.7c0.2,1,0.4,2,0.5,3.1c0,0.1,0,0.2-0.1,0.3c-0.1,0.1-0.2,0.1-0.3,0.1c0,0-0.1,0-0.1,0
			c-1.5-0.4-2.7-1.1-4-2.8c-0.7-0.8-1.3-1.7-1.9-2.5c-0.5-0.7-0.9-1.3-1.4-1.8c-0.1-0.1-0.2-0.2-0.2-0.3c-0.1-0.1-0.1-0.2-0.2-0.2
			c-0.3-0.4-0.7-0.8-1-1.2c-0.1-0.1-0.3-0.2-0.4-0.3c-0.1-0.1-0.2-0.1-0.2-0.2c-0.3-0.3-0.7-0.6-1.1-0.9c-0.2-0.1-0.4-0.2-0.6-0.3
			l-0.2-0.1c-0.1-0.1-0.2-0.1-0.3-0.2c-0.2-0.1-0.3-0.2-0.5-0.2c-0.1,0-0.2-0.1-0.2-0.2c0-0.1,0-0.2,0-0.3c0,0,0.1-0.1,0.1-0.1
			c1.3-1.9,0.2-4.3-0.9-6.5c0,0,0-0.1,0-0.1l0-0.3c-0.2-1.2-0.5-2.4-0.4-3.6c0-0.1,0-0.2,0-0.2c0,0,0-0.1,0-0.1c0-0.5,0.1-1,0.1-1.4
			c0-0.2,0.1-0.3,0.1-0.5l0.1-0.2l0-0.3c0-0.2,0.1-0.5,0.1-0.7c0-0.2,0.1-0.4,0.2-0.5l0.1-0.5c0.1-0.2,0.1-0.4,0.2-0.5
			c0.1-0.2,0.1-0.3,0.2-0.5l0.1-0.4c0.1-0.1,0.1-0.3,0.2-0.4c0-0.1,0.1-0.1,0.1-0.2c0.2-0.1,0.3-0.3,0.5-0.4c0,0,0.5-0.4,0.5-0.4
			c0.1-0.1,0.2-0.2,0.4-0.3l0.3-0.3c0.1-0.1,0.2-0.2,0.3-0.3c0.1-0.1,0.2-0.2,0.3-0.3l0.2-0.2l0.2-0.2c0.1-0.1,0.2-0.2,0.3-0.3
			c0.1-0.1,0.1-0.2,0.2-0.2c0-0.1,0.1-0.1,0.1-0.2l0.1-0.2c0.1-0.1,0.2-0.3,0.3-0.4c0.1-0.1,0.1-0.2,0.1-0.2c0-0.1,0.1-0.1,0.1-0.2
			l0.1-0.2c0.1-0.1,0.2-0.3,0.2-0.4c0-0.1,0.1-0.2,0.1-0.3c0-0.1,0-0.1,0.1-0.2l0.1-0.2c0.1-0.1,0.1-0.3,0.2-0.5c0-0.1,0-0.2,0-0.3
			c0-0.1,0-0.2,0-0.2l0-0.2c0-0.2,0.1-0.3,0.1-0.5c0-0.4,0-0.9-0.1-1.3c-0.6-3.3-3.5-5.2-8.6-5.4c-0.1,0-0.3-0.1-0.3-0.2
			c-0.1-0.1-0.1-0.3,0-0.4c0.4-0.6,0.9-1.3,1.3-1.9c0.7-1,1.3-1.8,1.4-3.2c0.1-1.6-0.7-3-2.3-4.1c-0.2-0.1-0.2-0.3-0.1-0.5
			c0.8-1.6,2-2.4,3.5-2.4c2.6,0,5.4,2.2,7.3,3.9c3.3,2.8,5.7,9.3,5.8,13.4c0.1,3.5-0.9,6.7-1.9,9.9c-0.6,1.8-1.1,3.6-1.5,5.4
			c-0.5,2.2-0.5,4.3-0.3,6.4c-0.1-4,0.9-7.7,1.9-11.6c0.2-0.9,0.5-1.7,0.7-2.6c1.1-4.4,2.3-10.8-0.6-16c-1.6-3-7.4-8.7-11.6-8.7
			c-1,0-1.9,0.4-2.6,1c-0.1,0.1-0.2,0.1-0.3,0.1c-0.1,0-0.1,0-0.2,0c-0.1-0.1-0.2-0.2-0.2-0.4c0.1-1.2,0-2.3-0.4-3.5c0,0,0,0,0,0
			c0-0.1,0-0.1-0.1-0.1c-0.2-0.4-0.3-0.8-0.5-1.1c0,0,0,0,0-0.1c0,0,0-0.1-0.1-0.1c-1.3-2.3-3.3-3.6-5.8-3.6c-0.3,0-0.5,0-0.8,0
			c0,0,0,0,0,0c-0.2,0-0.3-0.1-0.4-0.3c0-0.2,0.1-0.4,0.3-0.4c3.2-1.1,7.6-1.5,10.6-1.5c0.6,0,1.2,0,1.7,0.1c4.1,0.4,7.8,2.2,10,4.8
			c0,0,0.1,0.1,0.1,0.1c2.2,0.8,4.2,2.4,5.9,4.9c1.2,1.7,2,3.6,2.5,5.7c0.3,1.2,0.6,2.7,0.7,4c0,0.2,0,0.5,0,0.7l0,0.1
			c0,0.2,0,0.4,0,0.6c0,0,0,0.1,0,0.1c-0.2,1-0.1,1.8,0.4,2.5c0.7,0.9,2.1,1.4,4.3,1.4c0,0,0.1,0,0.1,0c0,0,0.1,0,0.1,0
			c0.1,0,0.2,0,0.2,0.1c0.1,0.1,0.2,0.2,0.1,0.3c-0.2,2.5-1.6,3.9-4.5,4.7c-0.1,0-0.2,0.1-0.2,0.2l-0.1,0.6
			c-0.2,1.4-0.5,2.9-0.1,4.2c0.3,1.1,0.9,2.6,2.8,2.6l0.2,0c0.6,0,1.2-0.2,1.6-0.6c0.1-0.1,0.2-0.1,0.2-0.1c0.1,0,0.2,0,0.2,0.1
			c0.1,0.1,0.2,0.3,0.1,0.4c-0.6,1.6-1.2,2.7-2,3.3c-0.9,0.7-2,0.7-3.1,0.8l-0.3,0c-0.1,0-0.2,0-0.2,0.1c0,0.1,0,0.2,0,0.2
			c0.4,0.8,1.2,1.4,2,2.1c0.5,0.4,0.9,0.8,1.3,1.1c0.5,0.6,0.8,1.2,1.1,2.2c0.2,0.9,0.7,3.8-0.8,5.9c-0.1,0.1-0.2,0.2-0.3,0.2
			c0,0,0,0,0,0c-0.1,0-0.3-0.1-0.3-0.2c-0.2-0.4-0.3-0.7-0.4-1.1c-0.2-0.6-0.4-1.2-0.8-1.7c-0.5-0.7-1.2-1.3-2-1.7c0,0-0.1,0-0.1,0
			c0,0-0.1,0-0.1,0c-0.1,0-0.1,0.1-0.1,0.1l-0.6,1.3c-0.8,1.9-2.1,4.7-0.8,6.7c0,0,0,0.1,0.1,0.1c0.1,0.5,0.4,0.9,0.8,1.1
			c0.2,0.1,0.4,0.2,0.7,0.2c0.3,0,0.7-0.1,1.2-0.2c0,0,0.1,0,0.1,0c0.1,0,0.1,0,0.2,0c0.5,0.3,1,0.4,1.3,0.4c0.1,0,0.3,0,0.4-0.1
			c0.3-0.1,0.6-0.3,0.7-0.7c0,0,0-0.1,0.1-0.1c0.1-0.1,0.2-0.2,0.3-0.4c0.1-0.1,0.2-0.2,0.3-0.2c0,0,0.1,0,0.1,0
			c0.2,0.1,0.3,0.3,0.2,0.4c-0.3,1.6-1,3-1.8,3.9c-0.7,0.7-1.7,0.9-2.8,1l-0.2,0c-0.1,0-0.1,0.1-0.2,0.1c0,0.1,0,0.1,0,0.2
			c0.5,0.8,1.6,1.6,2.5,2.3c0.6,0.4,1.1,0.8,1.4,1.1c0.7,0.8,1.2,1.7,1.6,2.9c1.1,3.1,1.4,5.8,0.9,7.7c0,0.1-0.1,0.2-0.3,0.3
			c0,0-0.1,0-0.1,0c-0.1,0-0.2,0-0.3-0.1c-0.4-0.4-0.8-1-1.2-1.6l0-0.1c-0.2-0.3-0.4-0.6-0.6-0.9c0-0.1-0.1-0.1-0.2-0.1
			c0,0,0,0-0.1,0c-0.1,0-0.2,0.1-0.2,0.2c-0.1,0.7-0.1,1.4-0.3,2.4c-0.1,0.6-0.2,1.2-0.3,1.7l0,0.1c-0.1,0.7-0.2,1.3-0.4,2
			c-0.9,2.9,0.6,5.1,4.5,6.6c0,0,0.1,0,0.1,0c0,0,0,0,0.1,0c0.1,0,0.2,0.1,0.3,0.1c0.1,0.1,0.1,0.2,0.1,0.4
			c-0.6,1.7-1.2,3.3-2.5,4.3c-0.5,0.4-0.9,0.7-1.3,1c-0.1,0-0.1,0.1-0.2,0.1c-0.1,0-0.1,0-0.1,0c-0.1-0.1-0.2-0.2-0.2-0.3
			c0-0.1,0-0.1-0.1-0.2C728.3,392.7,728.2,392.7,728.1,392.7 M701.9,414.7c1,1.1,1.8,2.3,2.3,3.5c0,0,0,0.1,0,0.1
			c0,0.7,0.1,1.4,0.2,2c0,0.1,0,0.1,0,0.2c0,0.1-0.1,0.3-0.2,0.6c0,0,0,0.1,0,0.1c0,0.1-0.1,0.2-0.2,0.3c-0.4,0.2-0.8,0.5-1.2,0.7
			l-0.3,0.2c-0.1,0.1-0.3,0.2-0.4,0.2c-0.3,0.1-0.5,0.3-0.8,0.4c-0.5,0.2-0.9,0.4-1.4,0.6l-0.3,0.1c-0.1,0.1-0.3,0.1-0.4,0.2
			c-0.2,0.1-0.5,0.2-0.7,0.3c-0.5,0.2-1.1,0.4-1.6,0.6l-0.3,0.1c-0.1,0.1-0.3,0.1-0.4,0.2c-0.2,0.1-0.4,0.2-0.6,0.2
			c-0.9,0.3-1.8,0.6-3.1,1c-2.2,0.7-4.6,1.7-7.1,2.7c-3.9,1.6-7.9,3.3-11.5,3.7c-0.6,0.1-1.1,0.1-1.7,0.1c-0.8,0-1.6-0.1-2.4-0.3
			c0,0-0.1,0-0.1,0l-0.2-0.1c-0.6-0.3-1.3-0.6-1.9-0.9c0,0,0,0,0,0c-0.1,0-0.2,0-0.2-0.1c-0.5-0.4-0.9-0.8-1.2-1.2
			c-0.3-0.4-0.6-0.8-0.8-1.3c-0.2-0.4-0.4-0.8-0.6-1.1c-2.6-6.1-1-16.2,0.4-25c0.6-3.9,1.2-7.5,1.3-10.5c0.1-2.6,0.1-5.6,0-8.9
			c-0.2-6.3-0.2-12.3,0.9-17.3c0-0.2,0.2-0.3,0.3-0.3c0,0,0,0,0,0c0.1,0,0.3,0.1,0.3,0.2c-0.1-0.3-0.2-0.5-0.3-0.8
			c-0.1-0.2,0-0.4,0.1-0.5c0.1,0,0.1-0.1,0.2-0.1c0.1,0,0.2,0,0.2,0.1c5.7,4.7,10.9,8.9,16.8,11.5c1.5,0.7,3,1.2,4.4,1.6
			c2.9,1,5.6,1.9,8.3,4c1.5,1.2,6.5,5.6,6.3,9.2c0,0.1,0,0.1-0.1,0.2c-0.8,1.2-0.6,2.3-0.4,3.5c0,0.3,0.1,0.6,0.1,0.9
			c0.1,1,0.2,2,0.3,3.1l0,0.1c0.1,1.4,0.3,2.8,0.5,4.2c0,0,0,0,0,0.1c0,2.4-0.1,4.9-0.1,7.3c-0.1,2.1-0.1,4.2-0.1,6.1
			c0,0.2-0.1,0.3-0.3,0.4c0,0-0.1,0-0.1,0c-0.1,0-0.2-0.1-0.3-0.2C703,416,702.5,415.3,701.9,414.7 M717.3,430.9
			c0.2,0,0.3,0.1,0.4,0.3c3.4,10.3,6.9,20.9,8.4,32.5c0.1,0.8,0.3,1.8,0.5,2.8l0,0.1c0.9,4.7,2.2,11.1-0.9,14.2
			c-0.1,0.1-0.2,0.1-0.3,0.1c0,0-0.1,0-0.1,0c-0.1,0-0.2-0.2-0.3-0.3c-0.4-3.2-2.1-5.7-3.9-8.3c-0.8-1.1-1.5-2.3-2.2-3.5
			c-0.5-0.9-1-1.9-1.5-2.8c-1.6-3.1-3.1-6-6-8c-0.1-0.1-0.2-0.3-0.1-0.4c0.7-2.1,1.4-4.2,2-6.4c0.1-0.4,0.2-0.8,0.3-1.3
			c0.1-0.3,0.1-0.6,0.2-0.9l0.1-0.4c0.3-1.3,0.7-2.7,1-4c0.1-0.5,0.2-1.1,0.3-1.7c0.1-0.3,0.1-0.7,0.2-1l0.1-0.7
			c0.2-1.1,0.4-2.3,0.6-3.4c0.1-0.6,0.2-1.3,0.2-2c0-0.3,0.1-0.7,0.1-1c0-0.4,0.1-0.8,0.1-1.2c0.1-0.8,0.2-1.6,0.3-2.4
			C716.9,431.1,717.1,431,717.3,430.9C717.3,430.9,717.3,430.9,717.3,430.9 M699.3,488.1C699.3,488.1,699.3,488.1,699.3,488.1
			c-0.2,0-0.2,0.1-0.3,0.1c-0.8,1.1-1.5,1.8-2.1,1.8h0c-0.3,0-0.6-0.2-0.8-0.5c-0.5-0.6-0.2-2.2,0.4-4.7c0.2-0.8,0.4-1.5,0.4-1.9
			c0.5-4.8,0.7-8.9,0.6-13.1c0-0.1-0.1-0.2-0.1-0.2c0,0-0.1,0-0.1,0c-0.1,0-0.1,0-0.2,0.1c-1.3,1.3-2.3,2.7-3.5,4.1l-0.1,0.1
			c-0.1,0.1-0.2,0.2-0.3,0.4l-0.1,0.1c-0.6,0.7-1.4,1.8-2.2,2c-0.1,0-0.3,0.1-0.5,0.1c-0.4,0-0.6-0.2-0.7-0.3
			c-0.3-0.4-0.3-1.2,0.1-1.9c1-2.2,2.7-4.1,4.3-6c1.5-1.7,3-3.5,4.1-5.5c0.2-0.4,0.4-1,0.7-1.6c0.5-1.4,1.2-3.1,2.1-4
			c0,0,0.1-0.1,0.1-0.1c0.2-1.9,0.6-3.5,1.1-5.7l0.2-0.8c0.7-2.9,0.8-5.9,1-8.8c0.1-1.7,0.2-3.4,0.3-5.1c0.2-1.9,0.2-4.1,0.2-6.2
			c0-2.7,0-5.9,0.6-8.6c0-0.1,0.1-0.2,0.2-0.3c0,0,0.1,0,0.1,0c0-0.3,0-0.6,0-0.9l0-0.1c0,0,0-0.1,0-0.1c0-0.1,0-0.2,0-0.2
			c-0.1-0.8-0.2-1.7-0.2-2.5c0-2.5,0.1-4.9,0.1-7.4c0.1-2.5,0.1-5,0.1-7.4c-0.2-1.4-0.3-2.8-0.5-4.2c-0.1-1.1-0.2-2.2-0.3-3.2
			c0-0.3-0.1-0.6-0.1-0.8c-0.2-1.2-0.4-2.1,0.4-3.2c0.9-1.4,3.3-1.9,5.5-2.3c0.9-0.2,1.8-0.3,2.5-0.6c0.5-0.2,1.2-0.6,1.9-1l0.1,0
			c1.2-0.7,2.7-1.6,3.7-1.6c0.1,0,0.2,0,0.3,0c0.4,0.1,1.1,0.4,1.4,1.3c0,0,0,0.1,0,0.1c0,0.1,0.1,0.1,0.1,0.3c0,0.1,0,0.2,0.1,0.4
			c0,0.1,0,0.1,0,0.2l0,0.2c0,0.2,0.1,0.4,0.1,0.7c0,0.3,0,0.7,0,1.1c0,0.4,0,0.7-0.1,1.1c0,0.4-0.1,0.7-0.1,1l0,0.1
			c0,0.2-0.1,0.5-0.1,0.7c-0.1,0.6-0.2,1.1-0.3,1.6c-0.1,0.6-0.2,1.1-0.3,1.5c0,0.1,0,0.3,0,0.4c0,0.1,0,0.2,0,0.4
			c-0.1,1.3-0.2,2.6-0.4,3.9c-0.4,4.3-0.7,8.6-1.7,12.8c0.1,5.6,0,10.4-0.3,14.7c-0.1,0.7-0.1,1.3-0.1,2c-0.8,9.7-2.6,18.3-5.7,27
			c0,0.1-0.1,0.2-0.2,0.2c0.1,0.1,0.1,0.2,0.1,0.3l0,0.1c0,0,0,0,0,0.1c1.1,2.5,0.9,5,0.7,8l0,0.6c-0.1,1.5,0.1,3.1,0.3,4.7
			c0.3,2.7,0.6,5.2-0.3,7.5c-0.5,1.5-2.7,4.3-3.9,4.3c0,0-0.1,0-0.1,0c-0.3,0-0.5-0.2-0.6-0.5c0-0.1-0.1-0.1-0.1-0.1
			c0,0-0.1,0-0.1,0c-0.1,0-0.2,0.1-0.2,0.1c-1.2,2.5-2.5,4.8-4.3,4.8c-0.2,0-0.3,0-0.5-0.1c0,0,0,0,0,0c-0.1,0-0.2,0-0.2,0.1
			c-0.3,0.4-0.7,0.8-1.3,0.8c0,0-0.1,0-0.1,0h0C699.7,488.3,699.6,488.2,699.3,488.1C699.4,488.1,699.3,488.1,699.3,488.1
			 M685.7,496.9c-0.1,0-0.3,0-0.4,0c-1.2,0-3.8,0.1-4.7,2.2c-0.2,0.4-0.2,0.8-0.2,1.3c0,0.1,0,0.2,0,0.3c0,0.2-0.2,0.4-0.4,0.4
			c-0.3,0-0.6,0-0.9,0c-3.6,0-7.3-0.5-11.1-1c-2.8-0.4-3.4-1.7-3.4-3.9c0-0.1-0.1-0.2-0.2-0.2c-2.6-0.1-4.1-0.6-5-1.6
			c-0.8-0.8-1.1-2-1-3.7c0.2-3.8,1.1-7.8,2-11.6l0.1-0.3c0.2-0.7,0.3-1.4,0.5-2c0.4-1.9,0.7-4,0.9-6c0.3-2.6,0.6-5.3,1.4-7.6
			c0,0,0-0.1,0-0.1c-0.2-0.8-0.3-1.8-0.3-2.9c0-0.2,0.1-0.3,0.3-0.4c0,0,0.1,0,0.1,0c0.1,0,0.2,0.1,0.3,0.2c1,1.4,2.1,2.7,3.2,4
			c1.1,1.3,2.3,2.7,3.3,4.1c1.1,1.6,2,3.4,2.8,5.1c0.9,1.9,1.9,4,3.3,5.6c1.9,2.4,4.8,4.3,7.6,6.1c-5.9-4.3-8.3-8.3-11.9-14.3
			l-0.3-0.6c-1.3-2.1-2.9-4-4.5-5.8c-1.4-1.6-2.9-3.3-4.1-5.2c0-0.1-0.1-0.1-0.1-0.2c0.1-2.2,0.4-4.4,0.7-6.5l0-0.3
			c0.1-0.5,0.2-1.1,0.2-1.6c0.8-6,1.6-12.4,1.4-19.2c0-0.2,0.1-0.3,0.2-0.4c0,0,0.1,0,0.1,0c0.1,0,0.2,0,0.3,0.1
			c0,0.1,0.1,0.1,0.2,0.1c0.1,0.1,0.1,0.1,0.2,0.2c0.3,0.3,0.6,0.6,0.9,0.8c0.2,0.1,0.4,0.2,0.6,0.4c0.3,0.2,0.7,0.3,1,0.5
			c0.2,0.1,0.4,0.2,0.7,0.2c0.3,0.1,0.7,0.1,1.1,0.2c0,0,0.1,0,0.1,0c3.5,1.8,7.7,3.9,11.9,5.7c4.2,1.8,7.7,3.6,10.4,5.6
			c-0.2-0.2-0.4-0.3-0.6-0.5c-4.7-3.6-10.5-6.1-16.1-8.5c-1.2-0.5-2.5-1.1-3.7-1.6c-0.2-0.1-0.3-0.2-0.2-0.4c0-0.2,0.2-0.3,0.4-0.3
			c0.1,0,0.2,0,0.3,0c0.2,0,0.4,0,0.6,0c3.6-0.4,7.7-2.1,11.6-3.8c2.5-1,4.8-2,7-2.7c1-0.3,2.1-0.6,3-0.9c0.2-0.1,0.3-0.1,0.5-0.2
			l0.4-0.1c0.8-0.3,1.4-0.5,2-0.7c0.2-0.1,0.5-0.2,0.7-0.3l0.3-0.1c0.7-0.3,1.2-0.5,1.7-0.8c0.3-0.1,0.6-0.3,0.9-0.4l0.2-0.1
			c0.1-0.1,0.3-0.1,0.4-0.2c0.2-0.1,0.4-0.2,0.6-0.3c0.1,0,0.1,0,0.2,0c0.1,0,0.2,0,0.2,0.1c0.1,0.1,0.2,0.2,0.2,0.4
			c0,0,0,0.1,0,0.1c0,0.1,0,0.1,0,0.2c-0.2,1-0.3,2.1-0.3,3.3c0,0.2,0,0.3,0,0.5l0,0.1c0,1,0,2.1,0,3.4c0,2.2,0,4.2-0.2,6.2
			c-0.2,1.7-0.3,3.4-0.3,5.1c-0.1,2.9-0.3,5.8-0.9,8.7l-0.2,0.8c-0.2,0.9-0.4,1.7-0.6,2.5c0,0.2-0.2,0.3-0.4,0.3c0,0,0,0,0,0
			c-0.2,0-0.3-0.1-0.4-0.2c0.2,0.7,0.3,1.3,0.4,2c0,0,0,0.1,0,0.1c0,0.1,0,0.2-0.1,0.4c0,0.2-0.1,0.3-0.1,0.5c0,0.1,0,0.2-0.1,0.2
			c-0.9,1-1.5,2.6-2.1,4c-0.2,0.6-0.5,1.2-0.7,1.6c-1,1.9-2.5,3.6-4,5.4c-1.6,1.9-3.3,3.9-4.4,6.1c-0.4,0.9-0.5,1.9,0,2.4
			c0.2,0.2,0.5,0.5,1.1,0.5c0.2,0,0.4,0,0.6-0.1c1-0.3,1.8-1.3,2.5-2.2c0.1-0.2,0.3-0.3,0.4-0.5l0.1-0.1c0.8-1,1.6-2,2.4-2.9
			c0.1-0.1,0.2-0.1,0.3-0.1c0,0,0.1,0,0.1,0c0.2,0.1,0.2,0.2,0.3,0.4c0,3.6-0.2,7.3-0.6,11.5c0,0.4-0.2,1.1-0.4,1.9
			c-0.6,2.4-1,4.3-0.3,5.1c0.4,0.6,0.9,0.6,1.1,0.6c0,0,0.1,0,0.1,0c0,0,0,0,0,0c0.7,0,1.4-0.6,2.2-1.6c0.1-0.1,0.2-0.2,0.3-0.2
			c0,0,0.1,0,0.1,0c0.1,0,0.2,0,0.4,0c0.5,0,1-0.2,1.4-0.8c0.1-0.1,0.2-0.1,0.3-0.1c0,0,0,0,0.1,0c0.1,0,0.2,0,0.4,0
			c1.9,0,3.3-2.4,4.2-4.2c0-0.1,0.1-0.2,0.2-0.2c0,0,0.1,0,0.1,0c0.1,0,0.1,0,0.2,0c0.2,0.1,0.3,0.1,0.5,0.1l0.1,0
			c1.6-0.1,3.8-3.1,4.3-4.6c0.9-2.5,0.6-5.2,0.3-7.7c-0.2-1.5-0.3-3.1-0.3-4.6l0-0.6c0.2-2.6,0.3-4.8-0.3-7c0-0.2,0-0.3,0.2-0.4
			c0.1,0,0.1-0.1,0.2-0.1c0.1,0,0.2,0,0.2,0.1c2.5,2,3.8,4.7,5.3,7.5c0.5,0.9,1,1.9,1.5,2.8c0.7,1.2,1.4,2.3,2.2,3.4
			c1.8,2.6,3.7,5.4,4,8.9c0,0.1-0.1,0.3-0.2,0.4c0,0,0,0-0.1,0.1c-0.1,0.1-0.1,0.1-0.2,0.2c-0.1,0-0.1,0.1-0.1,0.2
			c0.2,1.5,0,2.6-0.6,3.5c-0.8,1.1-2.1,1.9-4.1,2.4c-0.1,0-0.2,0.1-0.2,0.2c-0.2,0.9-0.4,1.6-0.7,2.3l-0.1,0.2
			c-0.4,0.9-0.9,1.9-1.6,2.5c-0.3,0.2-0.6,0.4-1,0.4c0,0-0.1,0-0.1,0c-0.1,0-0.2,0-0.2-0.1c-0.1-0.1-0.1-0.2-0.2-0.3
			c0-0.2-0.1-0.3-0.1-0.5c-0.1-0.5-0.3-1-0.6-1.5c-0.6-0.9-1.5-1.3-2.5-1.3c-0.5,0-1,0.1-1.5,0.3c-0.9,0.3-1.4,0.9-2,1.6
			c-0.2,0.3-0.5,0.6-0.8,0.8c-1.2,1.2-2.6,2-4,2.8c0,0-0.6,0.4-0.8,0.5c-0.1,0-0.1,0.1-0.2,0.1c0,0-0.2,0-0.3,0
			c-1.9,0-3.8,0.5-5.9,1.2c-0.4,0.1-0.8,0.3-1.2,0.5c-0.1,0-0.1,0.1-0.2,0.1c0,0-0.1,0.1-0.1,0.1l-0.1,0.1c-0.1,0-0.2,0.1-0.2,0.1
			c-0.1,0-0.1,0-0.2,0c-0.1-0.1-0.2-0.2-0.2-0.3c-0.2-1.5-0.7-2.9-1.3-4.1c0.7,1.2,1.1,2.6,1.3,4.2c0,0.1,0,0.2-0.1,0.3
			c-0.1,0.1-0.2,0.1-0.3,0.1c0,0,0,0,0,0c-0.3,0-0.6-0.1-0.9-0.1c-0.1,0-0.2,0-0.2,0c-0.1,0-0.2,0-0.3,0c-0.6-0.1-1.3-0.2-1.9-0.3
			C689.2,497.2,687.5,496.9,685.7,496.9 M685.8,497.4c1.7,0,3.3,0.3,5,0.6l0.1,0c0.9,0.2,1.7,0.3,2.5,0.4c0.1,0,0.2,0,0.2,0
			c0.1,0,0.2,0,0.2,0c0.1,0,0.2,0.1,0.3,0.2c0.1,0.1,0.1,0.2,0,0.4c0,0.1-0.1,0.1-0.1,0.2c-0.5,1-0.5,2.3-0.3,4.1
			c0,0.3,0.1,0.8,0.1,1.4c0.2,3,0.7,9.1,2.5,11.8c0,0,0.1,0.1,0.1,0.2c0.4,2.3,1,4.5,1.7,6.7l0,0.1c0.2,0.7,0.4,1.5,0.6,2.2
			c0,0,0,0.1,0,0.1c0.1,7.9,0,17.2-0.8,27l-0.1,0.9c-0.4,5.2-0.9,10.6-2.5,15.7c-0.5,1.4-1,2.7-1.6,4c-0.4,0.9-0.9,1.9-1.2,3
			c0,0,0,0.1-0.1,0.1c-2.7,3.7-6.4,5.7-10,7.2c0,0-0.1,0-0.1,0c0,0-0.1,0-0.1,0c-0.7,0.3-1.4,0.6-2,0.9c0,0-0.1,0-0.1,0
			c-4,0.4-7.4,0.6-10.3,0.6c-5.7,0-9.1-0.7-10.6-2.2c-0.6-0.6-0.8-1.3-0.7-2.1c0.3-2.4,3.3-4.5,8.7-5.7c1.7-0.4,3.4-0.6,5.2-0.7
			c1.9-0.2,3.9-0.3,5.7-0.8c0.9-0.3,1.7-0.7,2.8-1.3c0.1,0,0.1-0.1,0.2-0.1c0.1,0,0.1,0,0.2,0.1c0.4,0.2,0.8,0.4,1.3,0.6
			c-0.3-0.1-0.6-0.3-0.9-0.4c-0.1-0.1-0.2-0.2-0.2-0.3c0-0.1,0-0.3,0.2-0.3c1.3-0.9,2.5-2.1,3.9-3.8c0,0,0,0,0-0.1
			c2.8-8.4,1.6-21.4,0.8-29.1l0-0.2c-0.6-5.9-1-11.9-1.3-17.6l0-0.6c-0.1-1.8-0.2-3.5-0.3-5.3c0,0,0-0.1,0-0.1
			c-1.1-2.4-1.6-4.8-2.3-7.8l-0.1-0.5c-0.1-0.5-0.3-1.2-0.5-1.7c-0.1-0.4-0.3-0.9-0.4-1.3c0-0.2,0-0.3,0.2-0.4
			c0.1,0,0.1-0.1,0.2-0.1c0.1,0,0.2,0,0.3,0.1c1,0.9,1.8,1.7,2.6,2.8c0.1,0.1,0.3,0.3,0.4,0.6c0.8,0.9,1.9,2.4,2,3.5
			c0,0.1,0,0.2-0.1,0.3c-0.1,0.1-0.2,0.1-0.3,0.1c0,0-0.1,0-0.1,0c3.3,8.3,7.3,20.5,7.7,31.7c0.1,3.4-0.1,15.6-2.7,23.7
			c1-2.1,1.7-4.2,2-5.9c2.8-13.9,0.5-30.2-6.6-48.7c0-0.1,0-0.2,0-0.3c0.6-1-0.6-2.7-1.4-3.7c-0.1-0.2-0.2-0.3-0.3-0.5
			c-0.2-0.3-0.4-0.5-0.5-0.8c-0.5-0.7-0.9-1.3-1.4-1.8c-0.4-0.4-0.9-0.8-1.4-1.2c-0.2-0.2-0.5-0.4-0.7-0.6c-0.1-0.1-0.1-0.1-0.1-0.2
			c0-0.1,0-0.1,0-0.2c0-0.1-0.1-0.3-0.1-0.4c0-0.3,0-0.6,0-0.8c0-0.4,0.1-0.8,0.2-1.2c0.6-1.6,2.4-1.9,4.3-1.9
			C685.4,497.4,685.6,497.4,685.8,497.4 M708.6,574.3C708.6,574.3,708.7,574.3,708.6,574.3c0.2,0.1,0.2,0.3,0.2,0.4
			c-0.1,0.6-0.1,1.1-0.2,1.7c0,0,0,0.1,0,0.1c0.4,1.2,1,2.4,1.6,3.6c1.9,4.1,3.7,7.9,0.8,11.1c-1.7,1.8-4,1.9-6.5,1.9
			c-0.7,0-1.4,0-2.1,0.1c-3.9,0.3-7.6,1.5-11.1,2.6c-3.2,1-6.5,2.1-10,2.5c-1,0.1-2,0.2-3,0.2c-2.2,0-6.1-0.3-8.3-2.1
			c-1-0.8-1.5-1.9-1.5-3.2c-0.1-3.2,3.1-4.5,5.7-5.7c0.3-0.1,0.7-0.3,1-0.4c1.4-0.6,2.8-1.2,4.1-1.7l1-0.4c0.6-0.2,1.3-0.5,2-0.9
			c0,0,0.1,0,0.1,0c0,0,0,0,0.1,0c3.5-1.5,7.2-3.5,10-7.2c0.1-0.1,0.2-0.1,0.2-0.1c2.7-0.4,5.1-1.4,7.1-2.9c-1.8,1.3-4,2.2-6.4,2.7
			c0,0,0,0-0.1,0c-0.1,0-0.2,0-0.3-0.1c-0.1-0.1-0.1-0.3-0.1-0.4c0.3-0.8,0.7-1.6,1-2.4c0.6-1.3,1.2-2.6,1.6-4.1
			c1.7-5.1,2.1-10.5,2.5-15.8l0.1-0.9c0.8-9.8,0.8-19.2,0.8-27.1c0,0,0-0.1,0-0.1c-0.2-0.8-0.4-1.5-0.6-2.2l0-0.1
			c-0.6-2.2-1.3-4.5-1.7-6.8c0,0,0-0.1-0.1-0.1c0,0,0,0,0,0c-1.8-2.5-2.2-8.6-2.5-11.5c0-0.6-0.1-1.2-0.1-1.4
			c-0.2-1.5-0.1-2.5,0.1-3.3c0-0.2,0.2-0.3,0.4-0.3c0,0,0,0,0,0c0.2,0,0.3,0.1,0.4,0.3c1,5.1,3.1,10.1,5.2,14.8
			c1.9,4.3,3.8,8.8,4.9,13.4c1.4,5.7,2.2,10.6,2.7,15c-0.4-5.2-1.4-10.6-3-17c-1.1-4.2-2.9-8.3-4.7-12.2c-2.1-4.8-4.4-9.8-5.3-15
			c0-0.1,0-0.3,0.2-0.4c0,0,0,0,0.1,0c0.4-0.4,1-0.7,1.9-1c2.2-0.7,3.9-1.2,5.7-1.2c0.2,0,0.3,0,0.5,0c0,0,0,0,0,0
			c0.1,0,0.1,0,0.1,0c0.3-0.2,0.7-0.4,1-0.6c1.4-0.8,2.8-1.6,4.1-2.8c0.3-0.3,0.6-0.6,0.8-0.9c0.5-0.6,1-1.2,1.8-1.4
			c0.5-0.2,1-0.3,1.4-0.3c0.9,0,1.6,0.4,2.1,1.1c0.3,0.4,0.4,0.9,0.5,1.3c0.1,0.3,0.1,0.7,0.1,1c0.2,1.7,0,3.6-0.2,5.4
			c-0.1,0.9-0.2,1.8-0.2,2.5c0,2-0.2,4.2-0.4,6.5c0,0,0,0.1,0,0.1c0.4,2.6,0.9,5.3,1.4,7.8c1,5.3,2,10.9,2.1,16.4
			c0.1,6.8-1.7,12.5-3.6,18.2c-0.4,1.5-0.8,3.1-1.2,4.6c-1.3,4.7-2.6,9.6-3.5,14.4c0,0,0,0.1,0,0.1
			C709.4,570.2,708.7,573.3,708.6,574.3 M678.4,598.9c1.5,0,2.6-0.1,3-0.2c3.5-0.4,6.8-1.5,10-2.5c3.6-1.1,7.2-2.3,11-2.6
			c0.6-0.1,1.3-0.1,1.9-0.1l0.1,0c2.3,0,5-0.1,6.8-2.1c3.1-3.4,1.2-7.6-0.7-11.6l0-0.1c-0.5-1.1-1.1-2.2-1.5-3.3c0-0.1,0-0.1,0-0.2
			c0.7-6.9,2.6-14,4.4-20.8l0.1-0.2c0.4-1.5,0.8-2.9,1.2-4.4c2-5.8,3.7-11.5,3.6-18.4c-0.1-5.6-1.1-11.1-2.1-16.5
			c-0.5-2.6-1-5.2-1.4-7.8c0,0,0-0.1,0-0.1c0.2-2.3,0.4-4.4,0.4-6.4c0-0.7,0.1-1.5,0.2-2.4c0.2-1.5,0.3-3.3,0.2-4.9
			c0-0.2,0.1-0.4,0.3-0.4c0.6-0.1,1-0.3,1.3-0.5c0.8-0.6,1.4-1.8,1.8-2.7l0.1-0.2c0.3-0.6,0.5-1.3,0.7-2.1c0-0.1,0.1-0.3,0.3-0.3
			c1.9-0.5,3.2-1.3,4-2.5c0.6-0.9,0.9-2,0.8-3.5c0-0.1,0.1-0.3,0.2-0.4c4.4-2.7,2.9-10.3,1.9-15.4c-0.2-1.1-0.4-2.1-0.5-2.9
			c-1.6-11.7-5-22.1-8.6-33.1l-0.8-2.4c0,0,0-0.1,0-0.1c0.3-4.4,0.4-9.1,0.3-14.5c0,0,0-0.1,0-0.1c1-4,1.3-8.5,1.7-12.7
			c0-0.4,0.1-0.8,0.1-1.2l0.1-0.7c0-0.1,0.1-0.2,0.2-0.3c0.1,0,0.1-0.1,0.2-0.1c0.1,0,0.1,0,0.2,0c0.1,0,0.2,0.1,0.3,0.1
			c0.3,0,0.5-0.1,0.6-0.3l0.4-0.9c1.2-2.5,1.3-2.7,3.2-3.2c0.6-0.2,1.5-0.4,2.8-0.8c0,0,0.1,0,0.1,0c0.1,0,0.2,0,0.3,0.1
			c0.1,0.1,0.2,0.2,0.1,0.4c0,0.2,0,0.3,0.1,0.4c0.1,0.1,0.1,0.1,0.2,0.1c0.4,0,1.3-0.7,2.7-1.8c1.5-1.2,2.1-3,2.7-4.7
			c0.1-0.3,0.1-0.6-0.2-0.8c-0.1-0.1-0.3-0.1-0.4-0.1c-0.1,0-0.1,0-0.2,0c0,0-0.1,0-0.1,0c0,0-0.1,0-0.1,0c-3.5-1.4-4.9-3.3-4-5.9
			c0.1-0.7,0.3-1.4,0.4-2.1l0-0.1c0.1-0.6,0.2-1.2,0.3-1.7c0-0.2,0.1-0.5,0.1-0.7c0-0.2,0.1-0.3,0.3-0.3c0,0,0.1,0,0.1,0
			c0.1,0,0.3,0.1,0.3,0.2c0.5,0.7,0.9,1.3,1.3,1.6c0.1,0.1,0.2,0.1,0.3,0.1c0.1,0,0.1,0,0.2,0c0.2-0.1,0.4-0.3,0.5-0.5
			c0.7-2.1,0.4-4.8-0.8-8.3c-0.4-1.2-1-2.2-1.7-3c-0.3-0.3-0.8-0.7-1.5-1.2c-0.6-0.4-1.2-0.9-1.7-1.3c-0.1-0.1-0.2-0.2-0.1-0.4
			c0-0.1,0.2-0.2,0.3-0.3c0.7-0.1,1.6-0.4,2.2-1c1.6-1.7,2-4.2,2.1-5.5c0-0.3-0.2-0.6-0.5-0.7c-0.1,0-0.1,0-0.2,0
			c-0.3,0-0.5,0.1-0.6,0.4c0,0-0.1,0.1-0.1,0.2c0,0,0,0.1,0,0.1c-0.1,0.1-0.1,0.2-0.2,0.3l0,0.1c-0.1,0.3-0.3,0.6-0.5,0.8
			c0,0,0,0-0.1,0.1c-0.1,0.3-0.3,0.5-0.5,0.5c-0.1,0-0.2,0-0.3,0c-0.3,0-0.8-0.2-1.3-0.5c0,0-0.1,0-0.1,0c0,0-0.1,0-0.1,0
			c-0.5,0.2-0.9,0.3-1.2,0.3c-0.2,0-0.4,0-0.5-0.1c-0.3-0.1-0.5-0.4-0.6-0.9c0,0,0-0.1,0-0.1c-1.3-1.8-0.1-4.4,0.7-6.3l0.3-0.7
			c0-0.1,0.1-0.2,0.2-0.2c0,0,0.1,0,0.1,0c0.1,0,0.2,0,0.2,0.1c0.5,0.3,0.9,0.7,1.2,1.2c0.4,0.5,0.5,1.1,0.7,1.6
			c0.2,0.5,0.3,1,0.6,1.5c0.1,0.1,0.2,0.3,0.5,0.3c0,0,0.1,0,0.1,0c0.2,0,0.4-0.1,0.5-0.2c1.2-1.5,1.6-4,1.1-6.6
			c-0.2-1.1-0.6-1.8-1.2-2.4c-0.4-0.4-0.8-0.8-1.3-1.2l0,0c-0.4-0.3-0.7-0.6-1.1-0.9c-0.1-0.1-0.1-0.3-0.1-0.4
			c0.1-0.1,0.2-0.2,0.3-0.2c0.8-0.1,1.7-0.2,2.5-0.8c1.2-1,1.9-2.9,2.4-4.3c0,0,0-0.1,0-0.1c0.3-0.4,0.4-0.9,0.5-1.5
			c0,0,0-0.1,0-0.1c0-0.1,0-0.1,0-0.1c0-0.3-0.2-0.6-0.5-0.7c0,0-0.1,0-0.1,0c-0.3,0-0.6,0.2-0.7,0.5l-0.2,0.5
			c-0.1,0.4-0.2,0.7-0.4,1.1c0,0,0,0.1,0,0.1c-0.3,0.4-0.9,0.6-1.5,0.7c-0.1,0-0.2,0-0.2,0c-1.4,0-1.9-1.2-2.2-2.3
			c-0.3-1.3-0.1-2.6,0.1-4l0-0.2c0-0.1,0.1-0.3,0.3-0.3c2-0.6,4.3-1.8,4.5-5.4c0-0.3-0.2-0.5-0.4-0.6c-0.1,0-0.1,0-0.2,0
			c-0.1,0-0.3,0-0.4,0.1c-0.1,0-0.1,0.1-0.2,0.1c0,0,0,0,0,0c-1.9,0-3.1-0.4-3.7-1.2c-0.4-0.5-0.5-1.3-0.3-2.2c0-0.3,0-0.6,0-0.8
			l0-0.1c0-0.2,0-0.4,0-0.6c-0.1-1.3-0.4-2.8-0.8-4.1c-0.6-2.2-1.4-4.1-2.6-5.8c-1.8-2.5-3.8-4.2-6-5c-0.1,0-0.1-0.1-0.2-0.1
			c-2.3-2.7-6.1-4.5-10.2-4.9c-0.4,0-0.9,0-1.4,0c-4.1,0-12.5,0.8-15.1,3.9c0,0-0.1,0.1-0.1,0.1c-4.1,2-7.2,6.1-8.1,10.6
			c0,0,0,0.1,0,0.1c-0.4,0.8-0.9,1.5-1.7,2.1c-0.7,0.5-1.6,0.8-2.5,1.2c-0.9,0.3-1.9,0.7-2.7,1.3c-0.6,0.4-0.9,1-0.9,1.6
			c0,0.9,0.5,1.8,1.7,2.9c0.1,0.1,0.2,0.3,0.1,0.5c-0.2,0.5-0.5,0.9-0.9,1.4c-0.3,0.5-0.5,0.9-0.5,1.4c0,0.3,0.1,0.6,0.2,0.8
			c0.1,0.1,0.1,0.3,0,0.4c-0.4,0.5-0.6,1-0.6,1.5c0,0.4,0,0.7,0.2,1c0,0.1,0,0.3,0,0.4c-1.1,1.6-2.1,3.9-0.8,5.8
			c1.2,1.9,4,2.1,6.2,2.1c0.1,0,0.2,0,0.2,0.1c0.1,0.1,0.3,0.2,0.4,0.3c0.3,0.2,0.6,0.4,0.9,0.6c2.9,2.7,3.3,4.2,2.9,5.7
			c0,0.1-0.1,0.2-0.2,0.3c0,0-0.1,0-0.1,0c-0.1,0-0.2,0-0.2-0.1l-0.2-0.2c-0.4-0.3-0.8-0.6-1.2-0.9c-3.4-2.5-6.7-4.9-11.2-6.2
			l-0.4-0.1c-1.4-0.4-3.3-0.9-4.9-1c-0.1,0-0.3-0.1-0.3-0.2c-0.2-0.4-0.4-0.7-0.6-1c-1.4-1.9-3.4-3.1-5.3-4.3
			c-1.3-0.8-2.6-1.6-3.7-2.6c-1.8-1.6-3.6-3.5-5.2-5.2c-1.4-1.5-2.9-3-4.4-4.5c0,0-0.1-0.1-0.1-0.1c-2.7-5.1-7.6-9.1-12-12.7
			l-1.1-0.9c-1.7-1.4-3.5-2.5-5.2-3.7c-2-1.3-4-2.6-5.9-4.3l-2.5-2.2c-2-1.7-4-3.5-6.2-5.3c0,0-0.1-0.1-0.1-0.1
			c-0.2-0.5-0.5-1-0.8-1.4c-1-1.3-2.4-2.8-3.9-3.9c-0.6-0.5-1.3-0.9-2-1.3c-1.1-0.7-2.1-1.3-2.9-2.2l-0.8-0.9
			c-0.8-0.9-1.6-1.8-2.4-2.6c0,0-0.1-0.1-0.1-0.1c-2.8-6-5.3-9.5-7-9.8c-0.1,0-0.2,0-0.2,0c-0.3,0-0.6,0.1-0.9,0.4
			c-1.1,1.1,0.7,3.9,1.9,5.7c0.4,0.6,0.6,0.9,0.7,1.1c1,2.2,1.5,4.3,1.9,6.6c0,0.2,0,0.3-0.2,0.4c0,0-0.2,0.1-0.2,0.1
			c-0.3,0.2-0.6,0.3-0.9,0.5c-0.9,0.4-1.9,0.9-2.6,1.8c-0.6,0.7-0.8,1.4-0.6,2.3c0.1,0.3,0.2,0.6,0.4,1c0.1,0.1,0.1,0.3,0,0.4
			c-0.4,0.5-0.5,1.1-0.3,1.8c0.1,0.3,0.3,0.6,0.6,0.8c0.1,0.1,0.2,0.3,0.1,0.5c-0.4,0.7-0.3,1.4,0.1,2c0.3,0.4,1,0.8,1.8,1
			c0.1,0,0.2,0.1,0.3,0.2c0.2,0.5,0.5,0.9,0.9,1.2c0.4,0.2,0.9,0.3,1.4,0.3c1.2,0,2.6-0.5,3.9-0.9c0,0,0.1,0,0.1,0
			c0.1,0,0.2,0,0.3,0.1c0.4,0.4,0.8,0.8,1.1,1.1l0.4,0.4c0.2,0.2,0.4,0.5,0.6,0.8c0.4,0.5,0.8,1,1.3,1.3c0.8,0.7,1.8,0.9,2.6,1.1
			c0.8,0.1,1.6,0.3,2.4,0.5c0.1,0,0.2,0.1,0.3,0.2c0.9,1.8,1.6,2.7,3.4,4.4c2.3,2.3,4.3,5.1,6.1,7.8c0.8,1.2,1.7,2.5,2.6,3.6
			c0.3,0.4,0.6,0.8,0.8,1.1l0.1,0.1c1.5,2.1,2.9,4,5.2,5.6c1.1,0.8,2.4,1.6,3.6,2.3c2.1,1.3,4.2,2.6,6,4.2c0,0,0.1,0.1,0.1,0.2
			c1.8,5,5.5,9.6,10.3,13.1l1.4,1c3.6,2.7,7,5.2,10.1,8.6c0.4,0.5,0.7,0.9,1,1.4c0.2,0.3,0.3,0.4,0.5,0.6c0.1,0.1,0.1,0.2,0.1,0.2
			c-0.1,1.9,0,4.1,1.4,5.8c1.1,1.2,2.7,2.1,3.9,2.6c0.2,0.1,0.3,0.3,0.2,0.5c-1.5,5.4-1.3,12.5-1.1,18.8c0.1,3.2,0.2,6.3,0,8.9
			c-0.2,2.9-0.7,6.6-1.3,10.4c-1.4,9-3,19.1-0.4,25.3c0.2,0.4,0.3,0.7,0.5,1c0,0.1,0,0.1,0,0.2c0,0.6,0.1,1.2,0.1,1.9
			c0.2,6.8-0.6,13.2-1.4,19.2c-0.1,0.6-0.2,1.3-0.3,1.9c-0.6,3.8-1.1,7.4-0.4,10.8c0,0.1,0,0.1,0,0.2c-0.7,2.3-1,5-1.3,7.5
			c-0.2,2-0.5,4.1-0.9,6c-0.2,0.7-0.3,1.4-0.5,2.2l0,0.2c-0.9,3.9-1.8,7.9-2,11.7c-0.1,1.8,0.3,3.1,1.1,4c1.2,1.3,3.2,1.6,4.8,1.8
			c0.2,0,0.3,0.2,0.4,0.4c0.1,2,0.8,3.4,3.8,3.8c3.4,0.5,7.4,1,11.3,1c0.2,0,0.4,0,0.6,0c0,0,0.2,0,0.2,0c0.2,0,0.3,0.1,0.4,0.3
			c0.2,1.1,0.5,2.2,0.8,3.1c0.2,0.6,0.4,1.2,0.5,1.7l0.1,0.5c0.7,3,1.2,5.4,2.3,7.8c0,0,0,0.1,0,0.1c0.1,1.9,0.3,3.8,0.4,5.7
			c0.4,5.8,0.8,11.8,1.3,17.6l0,0.2c0.7,7.7,2,20.5-0.8,28.8c0,0,0,0.1-0.1,0.1c-1.9,2.3-4.1,4.5-7.1,5.4c-1.8,0.5-3.7,0.7-5.6,0.8
			c-1.7,0.1-3.5,0.3-5.2,0.7c-5.6,1.3-8.7,3.5-9,6.1c-0.1,1,0.2,1.8,0.9,2.5c1.6,1.6,5.1,2.4,10.9,2.4c1.9,0,4.1-0.1,6.6-0.3
			c0,0,0,0,0,0c0.2,0,0.3,0.1,0.4,0.3c0,0.2-0.1,0.4-0.2,0.4c-0.2,0.1-0.4,0.2-0.5,0.2c-0.3,0.1-0.6,0.2-0.9,0.4
			c-0.3,0.1-0.6,0.3-1,0.4c-2.6,1.1-6.1,2.6-6,6.1c0,1.4,0.6,2.6,1.6,3.6C672,598.5,675.7,598.9,678.4,598.9"/>
		
			<path style="clip-path:url(#SVGID_00000161631186931586198370000012812861955128833411_);fill:none;stroke:#5967B0;stroke-width:0.8;stroke-linecap:round;stroke-linejoin:round;stroke-miterlimit:10;" d="
			M694.9,303c2.5,0,4.4,1.3,5.6,3.6c0.1,0.1,0.1,0.2,0.2,0.3c0.1,0.2,0.2,0.4,0.3,0.7c0.4,1.3,0.5,2.6,0.3,4
			c-0.1,0.4-0.2,0.9-0.4,1.4c0,0.1,0,0.2,0.1,0.3c1.7,0.9,2.6,2.4,2.5,3.9c-0.1,1.2-0.6,2-1.3,3c-0.7,1-1.3,1.8-1.9,2.8
			c0,0.1,0,0.2,0,0.2c0,0.1,0.1,0.1,0.2,0.1c5.7,0.1,8.7,1.7,9.3,5.1c0.6,3.4-2,5.7-4.7,7.8c0,0,0,0,0,0.1c0,0,0,0.1-0.1,0.1l-1.3,1
			c-0.5,0.4-1.1,0.8-1.5,1.2c0,0-0.1,0.1-0.1,0.1c-0.4,0.5-1,1.3-1.7,1.8c0,0-0.1,0.1-0.1,0.1c-1,0.8-2,1.2-3.3,1.4
			c-0.4,0-0.7,0.1-1.1,0.1c-2.2,0-4.5-0.9-6.6-1.8c-1.5-0.6-3.1-1.2-4.6-1.5c-0.8-0.1-1.8-0.1-3-0.1l-0.8,0c-0.2,0-0.4,0-0.6,0
			c-0.2,0-0.4,0-0.6,0c-2,0-4.9-0.2-6.1-1.9c-0.9-1.4-0.6-3.3,1-5.6c0.1-0.1,0.1-0.2,0-0.3c-0.2-0.3-0.3-0.7-0.3-1.1
			c0-0.5,0.3-1.1,0.8-1.6c0,0,0.1-0.1,0.1-0.2c0-0.1,0-0.1-0.1-0.2c-0.1-0.1-0.4-0.4-0.4-0.9c0-0.4,0.1-0.7,0.4-1.2
			c0.4-0.6,0.8-1.2,1.1-1.9c0-0.1,0-0.2-0.1-0.3c-1.2-1.1-1.9-2.1-1.8-2.9c0-0.5,0.3-0.9,0.7-1.2c0.7-0.6,1.6-0.9,2.6-1.3
			c0.9-0.3,1.8-0.7,2.6-1.2c0.9-0.7,1.4-1.5,1.9-2.4c0,0,0,0,0-0.1c0.9-4.4,4-8.4,8-10.4c0.6-0.3,1.2-0.5,1.8-0.7
			c0.6-0.2,1.2-0.3,1.8-0.4l0.2,0c0.1,0,0.2,0,0.3,0C694.3,303,694.6,303,694.9,303z M592.5,269c0.1,0,0.1,0,0.2,0
			c2.2,0.4,5.7,7.4,6.7,9.6c0,0,0,0,0,0.1c0.9,0.9,1.7,1.9,2.5,2.8l0.7,0.8c0.9,1,2,1.6,3,2.3c0.7,0.4,1.3,0.8,1.9,1.3
			c1.5,1.1,2.8,2.5,3.8,3.8c0.4,0.5,0.6,1,0.8,1.5c0,0,0,0.1,0.1,0.1c2.1,1.7,4.2,3.5,6.2,5.3l2.6,2.2c1.9,1.6,3.9,3,5.9,4.3
			c1.7,1.1,3.5,2.3,5.1,3.6l1.1,0.9c4.4,3.6,9.3,7.6,11.9,12.6c0,0,0,0,0,0.1c1.5,1.5,3,3,4.4,4.5l0,0c1.7,1.8,3.4,3.6,5.2,5.2
			c1.1,1,2.5,1.8,3.7,2.6c2,1.2,3.8,2.4,5.2,4.2c0.3,0.4,0.5,0.8,0.8,1.2l0.1,0.2c0.1,0.2,0.2,0.4,0.2,0.6c0.5,1.5,0.4,2.8,0.2,4.7
			l-0.1,0.9c-0.1,1.3-0.2,2.7-0.2,4c-0.1,2.5-0.1,5-0.7,7.4c0,0.2-0.2,0.3-0.3,0.3c-0.1,0-0.2,0-0.3,0h0c-0.3,0-0.7-0.1-0.9-0.2
			c-0.3-0.2-0.5-0.4-0.7-0.6c-0.2-0.2-0.4-0.5-0.6-0.8c-0.3-0.4-0.7-0.9-1.1-1.4c-3.1-3.5-6.5-6-10.2-8.7l-1.4-1
			c-4.8-3.5-8.4-8.1-10.2-13.1c0,0,0-0.1-0.1-0.1c-1.8-1.6-4-3-6.2-4.3l-0.1,0c-1.3-0.8-2.4-1.5-3.5-2.3c-2.2-1.6-3.5-3.4-5.1-5.5
			l-0.1-0.1c-0.3-0.4-0.6-0.8-0.9-1.2c-0.9-1.2-1.7-2.4-2.6-3.6c-1.9-2.8-3.8-5.6-6.2-7.9c-2-1.9-2.6-2.7-3.4-4.6
			c0-0.1-0.1-0.1-0.1-0.1c-0.9-0.2-1.8-0.4-2.7-0.5c-0.9-0.2-1.7-0.4-2.4-1c-0.5-0.4-0.8-0.8-1.2-1.3c-0.2-0.3-0.5-0.6-0.7-0.8
			l-0.3-0.3c-0.4-0.4-1-1-1.5-1.4c0,0-0.1-0.1-0.1-0.1c0,0,0,0-0.1,0l-0.4,0.1c-1.1,0.4-2.6,0.9-3.8,0.9c-0.5,0-0.9-0.1-1.2-0.3
			c-0.4-0.2-0.7-0.7-0.8-1.2c0-0.1-0.1-0.2-0.2-0.2c-0.9-0.1-1.6-0.4-1.9-0.8c-0.5-0.6-0.4-1.3,0.2-1.9c0.1-0.1,0.1-0.1,0.1-0.2
			c0-0.1-0.1-0.1-0.1-0.2c-0.5-0.3-0.8-0.6-1-1c-0.2-0.6-0.1-1.2,0.5-1.5c0.1-0.1,0.1-0.2,0.1-0.3c-0.3-0.4-0.5-0.8-0.6-1.2
			c-0.2-0.7,0-1.3,0.5-1.9c0.6-0.8,1.4-1.2,2.4-1.7c0.3-0.1,0.6-0.3,0.9-0.5c0.2-0.1,0.3-0.2,0.5-0.3c0.1,0,0.1-0.1,0.1-0.2
			c0,0,0-0.1,0-0.2c-0.5-2.5-1-4.8-2-7c-0.1-0.2-0.4-0.6-0.7-1.1l0-0.1c-2-3-2.5-4.5-1.9-5.1C592.1,269.1,592.3,269,592.5,269z
			 M703.8,337.9c0.1,0,0.2,0,0.2,0.1c0.1,0.1,0.2,0.3,0.1,0.4c0,0,0,0.1,0,0.1c0,0.1,0,0.1,0,0.2c-0.1,0.4-0.3,0.9-0.4,1.5l0,0.1
			c0,0.2-0.1,0.3-0.1,0.5c-0.1,0.8-0.2,1.5-0.2,2.2c0,1.3,0.2,2.5,0.4,3.7l0.1,0.4c0,0,0,0,0,0.1c1.2,2.4,2.2,4.4,1,6.1
			c-0.1,0.2-0.3,0.4-0.5,0.6c0,0-0.1,0.1-0.1,0.1c-0.4,0.3-0.7,0.5-1.1,0.7c-2.8,1.5-7.2,2.5-11.3,2.5c-1,0-1.9-0.1-2.8-0.2
			c-2.7-0.3-6.8-2.2-6.5-6c0.1-1.3,0.5-2.4,0.9-3.4c0.1-0.3,0.2-0.5,0.3-0.8c0.8-2.2,0.7-3.9-2.7-7c-0.1-0.1-0.2-0.3-0.1-0.4
			c0.1-0.1,0.2-0.2,0.4-0.2c1.2,0,2.2,0,2.9,0.1c1.5,0.3,3,0.9,4.6,1.5c0.6,0.2,1.2,0.5,1.8,0.7c0.1,0,0.2,0.1,0.4,0.1l0.3,0.1
			c0.5,0.2,0.9,0.3,1.2,0.4c0.2,0.1,0.4,0.1,0.6,0.1l0.2,0c0.4,0.1,0.8,0.2,1.1,0.2c0.3,0,0.5,0.1,0.8,0.1c0.1,0,0.2,0,0.2,0
			c0.1,0,0.2,0,0.2,0c0.4,0,0.8,0,1.2-0.1c1.3-0.2,2.4-0.7,3.4-1.4c0,0,0.1,0,0.1-0.1c0.1,0,0.1-0.1,0.2-0.2c0,0,0-0.1,0.1-0.1
			c0.7-0.6,1.3-1.3,1.8-1.8c0,0,0,0,0.1-0.1c0.3-0.3,0.7-0.6,1.2-1C703.7,337.9,703.7,337.9,703.8,337.9z M718,385.5
			c-1.1,0-2.7,0.9-4,1.7c-0.7,0.4-1.4,0.8-1.9,1c-0.6,0.2-1.5,0.4-2.4,0.5c-2,0.4-3.8,0.8-5,1.7c-0.1,0.1-0.2,0.1-0.2,0.1
			c0,0-0.1,0-0.1,0c-0.1-0.1-0.2-0.2-0.2-0.3c-0.5-3.7-5.3-7.9-7.8-9.7c-2.2-1.5-4.9-2.4-7.4-3.2c-2-0.6-4.1-1.3-6-2.3
			c-5.1-2.7-10.1-6.7-15.2-10.9c0,0-0.1-0.1-0.1-0.1c0-0.1-0.1-0.1-0.1-0.1c-1.3-0.5-3.1-1.4-4.2-2.7c-1.1-1.4-1.3-3.2-1.3-4.5
			c0-0.1,0.1-0.3,0.2-0.3c0.1,0,0.1-0.1,0.2-0.1c0.1,0,0.1,0,0.2,0c0.3,0.1,0.6,0.2,1,0.2c0.1,0,0.1,0,0.1,0c0.2,0,0.3,0,0.5,0
			c0,0,0,0,0.1,0c0,0,0,0,0.1,0c0.1,0,0.3-0.2,0.4-0.4c0.6-2.4,0.6-5,0.7-7.6c0-1.4,0.1-2.7,0.2-4l0.1-0.9c0.2-1.9,0.3-3.4-0.3-4.9
			c0,0,0,0,0-0.1c0-0.1,0-0.3,0.1-0.3c0.1-0.1,0.2-0.1,0.3-0.1c0,0,0,0,0,0c1.5,0.1,3.1,0.6,4.2,0.9l0.4,0.1c4.4,1.2,7.6,3.6,11,6.1
			c0.6,0.4,1.1,0.8,1.7,1.3c0.1,0.1,0.2,0.3,0.1,0.5c0,0.1-0.1,0.2-0.1,0.3c-0.4,1.1-0.8,2.2-0.9,3.5c-0.2,3.7,3.3,6,6.9,6.5
			c0.7,0.1,1.5,0.1,2.6,0.2c0.1,0,0.1,0,0.2,0c0,0,0.1,0,0.1,0c0,0,0.1,0,0.1,0c0.1,0,0.1,0,0.2,0c0.9,0,1.8-0.1,2.7-0.2
			c0.1,0,0.1,0,0.2,0l0.2,0c0.8-0.1,1.7-0.2,2.5-0.4l0.2,0c0.1,0,0.2,0,0.3-0.1c0.8-0.2,1.7-0.4,2.5-0.7c0.1,0,0.3-0.1,0.4-0.1
			l0.1,0c0.9-0.3,1.6-0.7,2.2-1c0.3-0.2,0.6-0.4,0.9-0.6c0.1,0,0.1-0.1,0.2-0.1c0,0,0.1,0,0.1,0c0.7,0.2,1.3,0.5,1.8,0.8
			c0,0,0,0,0.1,0c0.6,0.4,1.2,0.8,1.7,1.4c0.4,0.4,0.9,0.9,1.4,1.6l0,0c0,0,0.1,0.1,0.1,0.1c0.5,0.6,0.9,1.3,1.4,1.9
			c0.6,0.9,1.3,1.8,2,2.6c1.5,1.8,2.7,2.6,4.4,3c0.1,0,0.2,0.1,0.2,0.2c0,0.1,0.1,0.1,0.1,0.2c0.1,0.1,0.2,0.2,0.2,0.3l0.1,0.1
			c0.3,0.3,0.7,0.7,1.1,1.1c0.4,0.3,0.8,0.7,1.1,1c2.4,2.7,3.4,5.3,3.4,9.2c0,2.5-0.4,4.8-1.4,7.6c-0.4,1.2-0.9,2.3-1.3,3.4l0,0.1
			c-0.1,0.2-0.2,0.2-0.4,0.2c0,0,0,0-0.1,0c-0.2,0-0.3-0.2-0.3-0.4c0-0.1,0-0.3-0.1-0.4c0-0.1,0-0.2,0-0.2l0-0.2
			c0-0.1,0-0.3-0.1-0.4c-0.1-0.2-0.1-0.4-0.2-0.6l0-0.1c0-0.1-0.1-0.1-0.1-0.2c0-0.1-0.1-0.1-0.1-0.2c-0.1-0.2-0.3-0.3-0.4-0.4
			c-0.1-0.1-0.1-0.1-0.2-0.2c0,0-0.1-0.1-0.1-0.1c-0.3-0.2-0.5-0.3-0.9-0.4C718.2,385.5,718.1,385.5,718,385.5z M728.1,392.7
			c-0.1,0-0.2,0-0.2,0.1c-1.7,0.6-2.8,0.9-3.7,1.1c-2.1,0.5-2.1,0.7-3.5,3.4l-0.3,0.5c-0.1,0.1-0.2,0.2-0.3,0.2c0,0,0,0,0,0
			c-0.2,0-0.3-0.1-0.3-0.2c-0.1-0.3-0.2-0.6-0.3-0.8c0,0,0-0.1,0-0.1c0-0.1,0-0.2,0-0.3c0-0.1,0-0.3,0-0.4c0-0.4,0.1-0.9,0.3-1.4
			c0.1-0.5,0.2-1,0.3-1.5c0.3-1.1,0.7-2.2,1.1-3.1c0,0,0-0.1,0-0.1c0-0.1,0.1-0.1,0.1-0.2c0,0,0-0.1,0-0.1c0.5-1.4,1.1-2.8,1.6-4.2
			c1-2.8,1.4-5.1,1.4-7.7c0-4.1-1-6.7-3.5-9.5c-0.4-0.4-0.8-0.8-1.2-1.1c-0.5-0.4-1-0.8-1.4-1.4c0,0,0,0,0,0c0-0.1-0.1-0.1-0.1-0.2
			c0,0,0,0,0,0c-0.1-1.3-0.4-2.5-0.7-3.7c0.2,1,0.4,2,0.5,3.1c0,0.1,0,0.2-0.1,0.3c-0.1,0.1-0.2,0.1-0.3,0.1c0,0-0.1,0-0.1,0
			c-1.5-0.4-2.7-1.1-4-2.8c-0.7-0.8-1.3-1.7-1.9-2.5c-0.5-0.7-0.9-1.3-1.4-1.8c-0.1-0.1-0.2-0.2-0.2-0.3c-0.1-0.1-0.1-0.2-0.2-0.2
			c-0.3-0.4-0.7-0.8-1-1.2c-0.1-0.1-0.3-0.2-0.4-0.3c-0.1-0.1-0.2-0.1-0.2-0.2c-0.3-0.3-0.7-0.6-1.1-0.9c-0.2-0.1-0.4-0.2-0.6-0.3
			l-0.2-0.1c-0.1-0.1-0.2-0.1-0.3-0.2c-0.2-0.1-0.3-0.2-0.5-0.2c-0.1,0-0.2-0.1-0.2-0.2c0-0.1,0-0.2,0-0.3c0,0,0.1-0.1,0.1-0.1
			c1.3-1.9,0.2-4.3-0.9-6.5c0,0,0-0.1,0-0.1l0-0.3c-0.2-1.2-0.5-2.4-0.4-3.6c0-0.1,0-0.2,0-0.2c0,0,0-0.1,0-0.1c0-0.5,0.1-1,0.1-1.4
			c0-0.2,0.1-0.3,0.1-0.5l0.1-0.2l0-0.3c0-0.2,0.1-0.5,0.1-0.7c0-0.2,0.1-0.4,0.2-0.5l0.1-0.5c0.1-0.2,0.1-0.4,0.2-0.5
			c0.1-0.2,0.1-0.3,0.2-0.5l0.1-0.4c0.1-0.1,0.1-0.3,0.2-0.4c0-0.1,0.1-0.1,0.1-0.2c0.2-0.1,0.3-0.3,0.5-0.4c0,0,0.5-0.4,0.5-0.4
			c0.1-0.1,0.2-0.2,0.4-0.3l0.3-0.3c0.1-0.1,0.2-0.2,0.3-0.3c0.1-0.1,0.2-0.2,0.3-0.3l0.2-0.2l0.2-0.2c0.1-0.1,0.2-0.2,0.3-0.3
			c0.1-0.1,0.1-0.2,0.2-0.2c0-0.1,0.1-0.1,0.1-0.2l0.1-0.2c0.1-0.1,0.2-0.3,0.3-0.4c0.1-0.1,0.1-0.2,0.1-0.2c0-0.1,0.1-0.1,0.1-0.2
			l0.1-0.2c0.1-0.1,0.2-0.3,0.2-0.4c0-0.1,0.1-0.2,0.1-0.3c0-0.1,0-0.1,0.1-0.2l0.1-0.2c0.1-0.1,0.1-0.3,0.2-0.5c0-0.1,0-0.2,0-0.3
			c0-0.1,0-0.2,0-0.2l0-0.2c0-0.2,0.1-0.3,0.1-0.5c0-0.4,0-0.9-0.1-1.3c-0.6-3.3-3.5-5.2-8.6-5.4c-0.1,0-0.3-0.1-0.3-0.2
			c-0.1-0.1-0.1-0.3,0-0.4c0.4-0.6,0.9-1.3,1.3-1.9c0.7-1,1.3-1.8,1.4-3.2c0.1-1.6-0.7-3-2.3-4.1c-0.2-0.1-0.2-0.3-0.1-0.5
			c0.8-1.6,2-2.4,3.5-2.4c2.6,0,5.4,2.2,7.3,3.9c3.3,2.8,5.7,9.3,5.8,13.4c0.1,3.5-0.9,6.7-1.9,9.9c-0.6,1.8-1.1,3.6-1.5,5.4
			c-0.5,2.2-0.5,4.3-0.3,6.4c-0.1-4,0.9-7.7,1.9-11.6c0.2-0.9,0.5-1.7,0.7-2.6c1.1-4.4,2.3-10.8-0.6-16c-1.6-3-7.4-8.7-11.6-8.7
			c-1,0-1.9,0.4-2.6,1c-0.1,0.1-0.2,0.1-0.3,0.1c-0.1,0-0.1,0-0.2,0c-0.1-0.1-0.2-0.2-0.2-0.4c0.1-1.2,0-2.3-0.4-3.5c0,0,0,0,0,0
			c0-0.1,0-0.1-0.1-0.1c-0.2-0.4-0.3-0.8-0.5-1.1c0,0,0,0,0-0.1c0,0,0-0.1-0.1-0.1c-1.3-2.3-3.3-3.6-5.8-3.6c-0.3,0-0.5,0-0.8,0
			c0,0,0,0,0,0c-0.2,0-0.3-0.1-0.4-0.3c0-0.2,0.1-0.4,0.3-0.4c3.2-1.1,7.6-1.5,10.6-1.5c0.6,0,1.2,0,1.7,0.1c4.1,0.4,7.8,2.2,10,4.8
			c0,0,0.1,0.1,0.1,0.1c2.2,0.8,4.2,2.4,5.9,4.9c1.2,1.7,2,3.6,2.5,5.7c0.3,1.2,0.6,2.7,0.7,4c0,0.2,0,0.5,0,0.7l0,0.1
			c0,0.2,0,0.4,0,0.6c0,0,0,0.1,0,0.1c-0.2,1-0.1,1.8,0.4,2.5c0.7,0.9,2.1,1.4,4.3,1.4c0,0,0.1,0,0.1,0c0,0,0.1,0,0.1,0
			c0.1,0,0.2,0,0.2,0.1c0.1,0.1,0.2,0.2,0.1,0.3c-0.2,2.5-1.6,3.9-4.5,4.7c-0.1,0-0.2,0.1-0.2,0.2l-0.1,0.6
			c-0.2,1.4-0.5,2.9-0.1,4.2c0.3,1.1,0.9,2.6,2.8,2.6l0.2,0c0.6,0,1.2-0.2,1.6-0.6c0.1-0.1,0.2-0.1,0.2-0.1c0.1,0,0.2,0,0.2,0.1
			c0.1,0.1,0.2,0.3,0.1,0.4c-0.6,1.6-1.2,2.7-2,3.3c-0.9,0.7-2,0.7-3.1,0.8l-0.3,0c-0.1,0-0.2,0-0.2,0.1c0,0.1,0,0.2,0,0.2
			c0.4,0.8,1.2,1.4,2,2.1c0.5,0.4,0.9,0.8,1.3,1.1c0.5,0.6,0.8,1.2,1.1,2.2c0.2,0.9,0.7,3.8-0.8,5.9c-0.1,0.1-0.2,0.2-0.3,0.2
			c0,0,0,0,0,0c-0.1,0-0.3-0.1-0.3-0.2c-0.2-0.4-0.3-0.7-0.4-1.1c-0.2-0.6-0.4-1.2-0.8-1.7c-0.5-0.7-1.2-1.3-2-1.7c0,0-0.1,0-0.1,0
			c0,0-0.1,0-0.1,0c-0.1,0-0.1,0.1-0.1,0.1l-0.6,1.3c-0.8,1.9-2.1,4.7-0.8,6.7c0,0,0,0.1,0.1,0.1c0.1,0.5,0.4,0.9,0.8,1.1
			c0.2,0.1,0.4,0.2,0.7,0.2c0.3,0,0.7-0.1,1.2-0.2c0,0,0.1,0,0.1,0c0.1,0,0.1,0,0.2,0c0.5,0.3,1,0.4,1.3,0.4c0.1,0,0.3,0,0.4-0.1
			c0.3-0.1,0.6-0.3,0.7-0.7c0,0,0-0.1,0.1-0.1c0.1-0.1,0.2-0.2,0.3-0.4c0.1-0.1,0.2-0.2,0.3-0.2c0,0,0.1,0,0.1,0
			c0.2,0.1,0.3,0.3,0.2,0.4c-0.3,1.6-1,3-1.8,3.9c-0.7,0.7-1.7,0.9-2.8,1l-0.2,0c-0.1,0-0.1,0.1-0.2,0.1c0,0.1,0,0.1,0,0.2
			c0.5,0.8,1.6,1.6,2.5,2.3c0.6,0.4,1.1,0.8,1.4,1.1c0.7,0.8,1.2,1.7,1.6,2.9c1.1,3.1,1.4,5.8,0.9,7.7c0,0.1-0.1,0.2-0.3,0.3
			c0,0-0.1,0-0.1,0c-0.1,0-0.2,0-0.3-0.1c-0.4-0.4-0.8-1-1.2-1.6l0-0.1c-0.2-0.3-0.4-0.6-0.6-0.9c0-0.1-0.1-0.1-0.2-0.1
			c0,0,0,0-0.1,0c-0.1,0-0.2,0.1-0.2,0.2c-0.1,0.7-0.1,1.4-0.3,2.4c-0.1,0.6-0.2,1.2-0.3,1.7l0,0.1c-0.1,0.7-0.2,1.3-0.4,2
			c-0.9,2.9,0.6,5.1,4.5,6.6c0,0,0.1,0,0.1,0c0,0,0,0,0.1,0c0.1,0,0.2,0.1,0.3,0.1c0.1,0.1,0.1,0.2,0.1,0.4
			c-0.6,1.7-1.2,3.3-2.5,4.3c-0.5,0.4-0.9,0.7-1.3,1c-0.1,0-0.1,0.1-0.2,0.1c-0.1,0-0.1,0-0.1,0c-0.1-0.1-0.2-0.2-0.2-0.3
			c0-0.1,0-0.1-0.1-0.2C728.3,392.7,728.2,392.7,728.1,392.7z M701.9,414.7c1,1.1,1.8,2.3,2.3,3.5c0,0,0,0.1,0,0.1
			c0,0.7,0.1,1.4,0.2,2c0,0.1,0,0.1,0,0.2c0,0.1-0.1,0.3-0.2,0.6c0,0,0,0.1,0,0.1c0,0.1-0.1,0.2-0.2,0.3c-0.4,0.2-0.8,0.5-1.2,0.7
			l-0.3,0.2c-0.1,0.1-0.3,0.2-0.4,0.2c-0.3,0.1-0.5,0.3-0.8,0.4c-0.5,0.2-0.9,0.4-1.4,0.6l-0.3,0.1c-0.1,0.1-0.3,0.1-0.4,0.2
			c-0.2,0.1-0.5,0.2-0.7,0.3c-0.5,0.2-1.1,0.4-1.6,0.6l-0.3,0.1c-0.1,0.1-0.3,0.1-0.4,0.2c-0.2,0.1-0.4,0.2-0.6,0.2
			c-0.9,0.3-1.8,0.6-3.1,1c-2.2,0.7-4.6,1.7-7.1,2.7c-3.9,1.6-7.9,3.3-11.5,3.7c-0.6,0.1-1.1,0.1-1.7,0.1c-0.8,0-1.6-0.1-2.4-0.3
			c0,0-0.1,0-0.1,0l-0.2-0.1c-0.6-0.3-1.3-0.6-1.9-0.9c0,0,0,0,0,0c-0.1,0-0.2,0-0.2-0.1c-0.5-0.4-0.9-0.8-1.2-1.2
			c-0.3-0.4-0.6-0.8-0.8-1.3c-0.2-0.4-0.4-0.8-0.6-1.1c-2.6-6.1-1-16.2,0.4-25c0.6-3.9,1.2-7.5,1.3-10.5c0.1-2.6,0.1-5.6,0-8.9
			c-0.2-6.3-0.2-12.3,0.9-17.3c0-0.2,0.2-0.3,0.3-0.3c0,0,0,0,0,0c0.1,0,0.3,0.1,0.3,0.2c-0.1-0.3-0.2-0.5-0.3-0.8
			c-0.1-0.2,0-0.4,0.1-0.5c0.1,0,0.1-0.1,0.2-0.1c0.1,0,0.2,0,0.2,0.1c5.7,4.7,10.9,8.9,16.8,11.5c1.5,0.7,3,1.2,4.4,1.6
			c2.9,1,5.6,1.9,8.3,4c1.5,1.2,6.5,5.6,6.3,9.2c0,0.1,0,0.1-0.1,0.2c-0.8,1.2-0.6,2.3-0.4,3.5c0,0.3,0.1,0.6,0.1,0.9
			c0.1,1,0.2,2,0.3,3.1l0,0.1c0.1,1.4,0.3,2.8,0.5,4.2c0,0,0,0,0,0.1c0,2.4-0.1,4.9-0.1,7.3c-0.1,2.1-0.1,4.2-0.1,6.1
			c0,0.2-0.1,0.3-0.3,0.4c0,0-0.1,0-0.1,0c-0.1,0-0.2-0.1-0.3-0.2C703,416,702.5,415.3,701.9,414.7z M717.3,430.9
			c0.2,0,0.3,0.1,0.4,0.3c3.4,10.3,6.9,20.9,8.4,32.5c0.1,0.8,0.3,1.8,0.5,2.8l0,0.1c0.9,4.7,2.2,11.1-0.9,14.2
			c-0.1,0.1-0.2,0.1-0.3,0.1c0,0-0.1,0-0.1,0c-0.1,0-0.2-0.2-0.3-0.3c-0.4-3.2-2.1-5.7-3.9-8.3c-0.8-1.1-1.5-2.3-2.2-3.5
			c-0.5-0.9-1-1.9-1.5-2.8c-1.6-3.1-3.1-6-6-8c-0.1-0.1-0.2-0.3-0.1-0.4c0.7-2.1,1.4-4.2,2-6.4c0.1-0.4,0.2-0.8,0.3-1.3
			c0.1-0.3,0.1-0.6,0.2-0.9l0.1-0.4c0.3-1.3,0.7-2.7,1-4c0.1-0.5,0.2-1.1,0.3-1.7c0.1-0.3,0.1-0.7,0.2-1l0.1-0.7
			c0.2-1.1,0.4-2.3,0.6-3.4c0.1-0.6,0.2-1.3,0.2-2c0-0.3,0.1-0.7,0.1-1c0-0.4,0.1-0.8,0.1-1.2c0.1-0.8,0.2-1.6,0.3-2.4
			C716.9,431.1,717.1,431,717.3,430.9C717.3,430.9,717.3,430.9,717.3,430.9z M699.3,488.1C699.3,488.1,699.3,488.1,699.3,488.1
			c-0.2,0-0.2,0.1-0.3,0.1c-0.8,1.1-1.5,1.8-2.1,1.8h0c-0.3,0-0.6-0.2-0.8-0.5c-0.5-0.6-0.2-2.2,0.4-4.7c0.2-0.8,0.4-1.5,0.4-1.9
			c0.5-4.8,0.7-8.9,0.6-13.1c0-0.1-0.1-0.2-0.1-0.2c0,0-0.1,0-0.1,0c-0.1,0-0.1,0-0.2,0.1c-1.3,1.3-2.3,2.7-3.5,4.1l-0.1,0.1
			c-0.1,0.1-0.2,0.2-0.3,0.4l-0.1,0.1c-0.6,0.7-1.4,1.8-2.2,2c-0.1,0-0.3,0.1-0.5,0.1c-0.4,0-0.6-0.2-0.7-0.3
			c-0.3-0.4-0.3-1.2,0.1-1.9c1-2.2,2.7-4.1,4.3-6c1.5-1.7,3-3.5,4.1-5.5c0.2-0.4,0.4-1,0.7-1.6c0.5-1.4,1.2-3.1,2.1-4
			c0,0,0.1-0.1,0.1-0.1c0.2-1.9,0.6-3.5,1.1-5.7l0.2-0.8c0.7-2.9,0.8-5.9,1-8.8c0.1-1.7,0.2-3.4,0.3-5.1c0.2-1.9,0.2-4.1,0.2-6.2
			c0-2.7,0-5.9,0.6-8.6c0-0.1,0.1-0.2,0.2-0.3c0,0,0.1,0,0.1,0c0-0.3,0-0.6,0-0.9l0-0.1c0,0,0-0.1,0-0.1c0-0.1,0-0.2,0-0.2
			c-0.1-0.8-0.2-1.7-0.2-2.5c0-2.5,0.1-4.9,0.1-7.4c0.1-2.5,0.1-5,0.1-7.4c-0.2-1.4-0.3-2.8-0.5-4.2c-0.1-1.1-0.2-2.2-0.3-3.2
			c0-0.3-0.1-0.6-0.1-0.8c-0.2-1.2-0.4-2.1,0.4-3.2c0.9-1.4,3.3-1.9,5.5-2.3c0.9-0.2,1.8-0.3,2.5-0.6c0.5-0.2,1.2-0.6,1.9-1l0.1,0
			c1.2-0.7,2.7-1.6,3.7-1.6c0.1,0,0.2,0,0.3,0c0.4,0.1,1.1,0.4,1.4,1.3c0,0,0,0.1,0,0.1c0,0.1,0.1,0.1,0.1,0.3c0,0.1,0,0.2,0.1,0.4
			c0,0.1,0,0.1,0,0.2l0,0.2c0,0.2,0.1,0.4,0.1,0.7c0,0.3,0,0.7,0,1.1c0,0.4,0,0.7-0.1,1.1c0,0.4-0.1,0.7-0.1,1l0,0.1
			c0,0.2-0.1,0.5-0.1,0.7c-0.1,0.6-0.2,1.1-0.3,1.6c-0.1,0.6-0.2,1.1-0.3,1.5c0,0.1,0,0.3,0,0.4c0,0.1,0,0.2,0,0.4
			c-0.1,1.3-0.2,2.6-0.4,3.9c-0.4,4.3-0.7,8.6-1.7,12.8c0.1,5.6,0,10.4-0.3,14.7c-0.1,0.7-0.1,1.3-0.1,2c-0.8,9.7-2.6,18.3-5.7,27
			c0,0.1-0.1,0.2-0.2,0.2c0.1,0.1,0.1,0.2,0.1,0.3l0,0.1c0,0,0,0,0,0.1c1.1,2.5,0.9,5,0.7,8l0,0.6c-0.1,1.5,0.1,3.1,0.3,4.7
			c0.3,2.7,0.6,5.2-0.3,7.5c-0.5,1.5-2.7,4.3-3.9,4.3c0,0-0.1,0-0.1,0c-0.3,0-0.5-0.2-0.6-0.5c0-0.1-0.1-0.1-0.1-0.1
			c0,0-0.1,0-0.1,0c-0.1,0-0.2,0.1-0.2,0.1c-1.2,2.5-2.5,4.8-4.3,4.8c-0.2,0-0.3,0-0.5-0.1c0,0,0,0,0,0c-0.1,0-0.2,0-0.2,0.1
			c-0.3,0.4-0.7,0.8-1.3,0.8c0,0-0.1,0-0.1,0h0C699.7,488.3,699.6,488.2,699.3,488.1C699.4,488.1,699.3,488.1,699.3,488.1z
			 M685.7,496.9c-0.1,0-0.3,0-0.4,0c-1.2,0-3.8,0.1-4.7,2.2c-0.2,0.4-0.2,0.8-0.2,1.3c0,0.1,0,0.2,0,0.3c0,0.2-0.2,0.4-0.4,0.4
			c-0.3,0-0.6,0-0.9,0c-3.6,0-7.3-0.5-11.1-1c-2.8-0.4-3.4-1.7-3.4-3.9c0-0.1-0.1-0.2-0.2-0.2c-2.6-0.1-4.1-0.6-5-1.6
			c-0.8-0.8-1.1-2-1-3.7c0.2-3.8,1.1-7.8,2-11.6l0.1-0.3c0.2-0.7,0.3-1.4,0.5-2c0.4-1.9,0.7-4,0.9-6c0.3-2.6,0.6-5.3,1.4-7.6
			c0,0,0-0.1,0-0.1c-0.2-0.8-0.3-1.8-0.3-2.9c0-0.2,0.1-0.3,0.3-0.4c0,0,0.1,0,0.1,0c0.1,0,0.2,0.1,0.3,0.2c1,1.4,2.1,2.7,3.2,4
			c1.1,1.3,2.3,2.7,3.3,4.1c1.1,1.6,2,3.4,2.8,5.1c0.9,1.9,1.9,4,3.3,5.6c1.9,2.4,4.8,4.3,7.6,6.1c-5.9-4.3-8.3-8.3-11.9-14.3
			l-0.3-0.6c-1.3-2.1-2.9-4-4.5-5.8c-1.4-1.6-2.9-3.3-4.1-5.2c0-0.1-0.1-0.1-0.1-0.2c0.1-2.2,0.4-4.4,0.7-6.5l0-0.3
			c0.1-0.5,0.2-1.1,0.2-1.6c0.8-6,1.6-12.4,1.4-19.2c0-0.2,0.1-0.3,0.2-0.4c0,0,0.1,0,0.1,0c0.1,0,0.2,0,0.3,0.1
			c0,0.1,0.1,0.1,0.2,0.1c0.1,0.1,0.1,0.1,0.2,0.2c0.3,0.3,0.6,0.6,0.9,0.8c0.2,0.1,0.4,0.2,0.6,0.4c0.3,0.2,0.7,0.3,1,0.5
			c0.2,0.1,0.4,0.2,0.7,0.2c0.3,0.1,0.7,0.1,1.1,0.2c0,0,0.1,0,0.1,0c3.5,1.8,7.7,3.9,11.9,5.7c4.2,1.8,7.7,3.6,10.4,5.6
			c-0.2-0.2-0.4-0.3-0.6-0.5c-4.7-3.6-10.5-6.1-16.1-8.5c-1.2-0.5-2.5-1.1-3.7-1.6c-0.2-0.1-0.3-0.2-0.2-0.4c0-0.2,0.2-0.3,0.4-0.3
			c0.1,0,0.2,0,0.3,0c0.2,0,0.4,0,0.6,0c3.6-0.4,7.7-2.1,11.6-3.8c2.5-1,4.8-2,7-2.7c1-0.3,2.1-0.6,3-0.9c0.2-0.1,0.3-0.1,0.5-0.2
			l0.4-0.1c0.8-0.3,1.4-0.5,2-0.7c0.2-0.1,0.5-0.2,0.7-0.3l0.3-0.1c0.7-0.3,1.2-0.5,1.7-0.8c0.3-0.1,0.6-0.3,0.9-0.4l0.2-0.1
			c0.1-0.1,0.3-0.1,0.4-0.2c0.2-0.1,0.4-0.2,0.6-0.3c0.1,0,0.1,0,0.2,0c0.1,0,0.2,0,0.2,0.1c0.1,0.1,0.2,0.2,0.2,0.4
			c0,0,0,0.1,0,0.1c0,0.1,0,0.1,0,0.2c-0.2,1-0.3,2.1-0.3,3.3c0,0.2,0,0.3,0,0.5l0,0.1c0,1,0,2.1,0,3.4c0,2.2,0,4.2-0.2,6.2
			c-0.2,1.7-0.3,3.4-0.3,5.1c-0.1,2.9-0.3,5.8-0.9,8.7l-0.2,0.8c-0.2,0.9-0.4,1.7-0.6,2.5c0,0.2-0.2,0.3-0.4,0.3c0,0,0,0,0,0
			c-0.2,0-0.3-0.1-0.4-0.2c0.2,0.7,0.3,1.3,0.4,2c0,0,0,0.1,0,0.1c0,0.1,0,0.2-0.1,0.4c0,0.2-0.1,0.3-0.1,0.5c0,0.1,0,0.2-0.1,0.2
			c-0.9,1-1.5,2.6-2.1,4c-0.2,0.6-0.5,1.2-0.7,1.6c-1,1.9-2.5,3.6-4,5.4c-1.6,1.9-3.3,3.9-4.4,6.1c-0.4,0.9-0.5,1.9,0,2.4
			c0.2,0.2,0.5,0.5,1.1,0.5c0.2,0,0.4,0,0.6-0.1c1-0.3,1.8-1.3,2.5-2.2c0.1-0.2,0.3-0.3,0.4-0.5l0.1-0.1c0.8-1,1.6-2,2.4-2.9
			c0.1-0.1,0.2-0.1,0.3-0.1c0,0,0.1,0,0.1,0c0.2,0.1,0.2,0.2,0.3,0.4c0,3.6-0.2,7.3-0.6,11.5c0,0.4-0.2,1.1-0.4,1.9
			c-0.6,2.4-1,4.3-0.3,5.1c0.4,0.6,0.9,0.6,1.1,0.6c0,0,0.1,0,0.1,0c0,0,0,0,0,0c0.7,0,1.4-0.6,2.2-1.6c0.1-0.1,0.2-0.2,0.3-0.2
			c0,0,0.1,0,0.1,0c0.1,0,0.2,0,0.4,0c0.5,0,1-0.2,1.4-0.8c0.1-0.1,0.2-0.1,0.3-0.1c0,0,0,0,0.1,0c0.1,0,0.2,0,0.4,0
			c1.9,0,3.3-2.4,4.2-4.2c0-0.1,0.1-0.2,0.2-0.2c0,0,0.1,0,0.1,0c0.1,0,0.1,0,0.2,0c0.2,0.1,0.3,0.1,0.5,0.1l0.1,0
			c1.6-0.1,3.8-3.1,4.3-4.6c0.9-2.5,0.6-5.2,0.3-7.7c-0.2-1.5-0.3-3.1-0.3-4.6l0-0.6c0.2-2.6,0.3-4.8-0.3-7c0-0.2,0-0.3,0.2-0.4
			c0.1,0,0.1-0.1,0.2-0.1c0.1,0,0.2,0,0.2,0.1c2.5,2,3.8,4.7,5.3,7.5c0.5,0.9,1,1.9,1.5,2.8c0.7,1.2,1.4,2.3,2.2,3.4
			c1.8,2.6,3.7,5.4,4,8.9c0,0.1-0.1,0.3-0.2,0.4c0,0,0,0-0.1,0.1c-0.1,0.1-0.1,0.1-0.2,0.2c-0.1,0-0.1,0.1-0.1,0.2
			c0.2,1.5,0,2.6-0.6,3.5c-0.8,1.1-2.1,1.9-4.1,2.4c-0.1,0-0.2,0.1-0.2,0.2c-0.2,0.9-0.4,1.6-0.7,2.3l-0.1,0.2
			c-0.4,0.9-0.9,1.9-1.6,2.5c-0.3,0.2-0.6,0.4-1,0.4c0,0-0.1,0-0.1,0c-0.1,0-0.2,0-0.2-0.1c-0.1-0.1-0.1-0.2-0.2-0.3
			c0-0.2-0.1-0.3-0.1-0.5c-0.1-0.5-0.3-1-0.6-1.5c-0.6-0.9-1.5-1.3-2.5-1.3c-0.5,0-1,0.1-1.5,0.3c-0.9,0.3-1.4,0.9-2,1.6
			c-0.2,0.3-0.5,0.6-0.8,0.8c-1.2,1.2-2.6,2-4,2.8c0,0-0.6,0.4-0.8,0.5c-0.1,0-0.1,0.1-0.2,0.1c0,0-0.2,0-0.3,0
			c-1.9,0-3.8,0.5-5.9,1.2c-0.4,0.1-0.8,0.3-1.2,0.5c-0.1,0-0.1,0.1-0.2,0.1c0,0-0.1,0.1-0.1,0.1l-0.1,0.1c-0.1,0-0.2,0.1-0.2,0.1
			c-0.1,0-0.1,0-0.2,0c-0.1-0.1-0.2-0.2-0.2-0.3c-0.2-1.5-0.7-2.9-1.3-4.1c0.7,1.2,1.1,2.6,1.3,4.2c0,0.1,0,0.2-0.1,0.3
			c-0.1,0.1-0.2,0.1-0.3,0.1c0,0,0,0,0,0c-0.3,0-0.6-0.1-0.9-0.1c-0.1,0-0.2,0-0.2,0c-0.1,0-0.2,0-0.3,0c-0.6-0.1-1.3-0.2-1.9-0.3
			C689.2,497.2,687.5,496.9,685.7,496.9z M685.8,497.4c1.7,0,3.3,0.3,5,0.6l0.1,0c0.9,0.2,1.7,0.3,2.5,0.4c0.1,0,0.2,0,0.2,0
			c0.1,0,0.2,0,0.2,0c0.1,0,0.2,0.1,0.3,0.2c0.1,0.1,0.1,0.2,0,0.4c0,0.1-0.1,0.1-0.1,0.2c-0.5,1-0.5,2.3-0.3,4.1
			c0,0.3,0.1,0.8,0.1,1.4c0.2,3,0.7,9.1,2.5,11.8c0,0,0.1,0.1,0.1,0.2c0.4,2.3,1,4.5,1.7,6.7l0,0.1c0.2,0.7,0.4,1.5,0.6,2.2
			c0,0,0,0.1,0,0.1c0.1,7.9,0,17.2-0.8,27l-0.1,0.9c-0.4,5.2-0.9,10.6-2.5,15.7c-0.5,1.4-1,2.7-1.6,4c-0.4,0.9-0.9,1.9-1.2,3
			c0,0,0,0.1-0.1,0.1c-2.7,3.7-6.4,5.7-10,7.2c0,0-0.1,0-0.1,0c0,0-0.1,0-0.1,0c-0.7,0.3-1.4,0.6-2,0.9c0,0-0.1,0-0.1,0
			c-4,0.4-7.4,0.6-10.3,0.6c-5.7,0-9.1-0.7-10.6-2.2c-0.6-0.6-0.8-1.3-0.7-2.1c0.3-2.4,3.3-4.5,8.7-5.7c1.7-0.4,3.4-0.6,5.2-0.7
			c1.9-0.2,3.9-0.3,5.7-0.8c0.9-0.3,1.7-0.7,2.8-1.3c0.1,0,0.1-0.1,0.2-0.1c0.1,0,0.1,0,0.2,0.1c0.4,0.2,0.8,0.4,1.3,0.6
			c-0.3-0.1-0.6-0.3-0.9-0.4c-0.1-0.1-0.2-0.2-0.2-0.3c0-0.1,0-0.3,0.2-0.3c1.3-0.9,2.5-2.1,3.9-3.8c0,0,0,0,0-0.1
			c2.8-8.4,1.6-21.4,0.8-29.1l0-0.2c-0.6-5.9-1-11.9-1.3-17.6l0-0.6c-0.1-1.8-0.2-3.5-0.3-5.3c0,0,0-0.1,0-0.1
			c-1.1-2.4-1.6-4.8-2.3-7.8l-0.1-0.5c-0.1-0.5-0.3-1.2-0.5-1.7c-0.1-0.4-0.3-0.9-0.4-1.3c0-0.2,0-0.3,0.2-0.4
			c0.1,0,0.1-0.1,0.2-0.1c0.1,0,0.2,0,0.3,0.1c1,0.9,1.8,1.7,2.6,2.8c0.1,0.1,0.3,0.3,0.4,0.6c0.8,0.9,1.9,2.4,2,3.5
			c0,0.1,0,0.2-0.1,0.3c-0.1,0.1-0.2,0.1-0.3,0.1c0,0-0.1,0-0.1,0c3.3,8.3,7.3,20.5,7.7,31.7c0.1,3.4-0.1,15.6-2.7,23.7
			c1-2.1,1.7-4.2,2-5.9c2.8-13.9,0.5-30.2-6.6-48.7c0-0.1,0-0.2,0-0.3c0.6-1-0.6-2.7-1.4-3.7c-0.1-0.2-0.2-0.3-0.3-0.5
			c-0.2-0.3-0.4-0.5-0.5-0.8c-0.5-0.7-0.9-1.3-1.4-1.8c-0.4-0.4-0.9-0.8-1.4-1.2c-0.2-0.2-0.5-0.4-0.7-0.6c-0.1-0.1-0.1-0.1-0.1-0.2
			c0-0.1,0-0.1,0-0.2c0-0.1-0.1-0.3-0.1-0.4c0-0.3,0-0.6,0-0.8c0-0.4,0.1-0.8,0.2-1.2c0.6-1.6,2.4-1.9,4.3-1.9
			C685.4,497.4,685.6,497.4,685.8,497.4z M708.6,574.3C708.6,574.3,708.7,574.3,708.6,574.3c0.2,0.1,0.2,0.3,0.2,0.4
			c-0.1,0.6-0.1,1.1-0.2,1.7c0,0,0,0.1,0,0.1c0.4,1.2,1,2.4,1.6,3.6c1.9,4.1,3.7,7.9,0.8,11.1c-1.7,1.8-4,1.9-6.5,1.9
			c-0.7,0-1.4,0-2.1,0.1c-3.9,0.3-7.6,1.5-11.1,2.6c-3.2,1-6.5,2.1-10,2.5c-1,0.1-2,0.2-3,0.2c-2.2,0-6.1-0.3-8.3-2.1
			c-1-0.8-1.5-1.9-1.5-3.2c-0.1-3.2,3.1-4.5,5.7-5.7c0.3-0.1,0.7-0.3,1-0.4c1.4-0.6,2.8-1.2,4.1-1.7l1-0.4c0.6-0.2,1.3-0.5,2-0.9
			c0,0,0.1,0,0.1,0c0,0,0,0,0.1,0c3.5-1.5,7.2-3.5,10-7.2c0.1-0.1,0.2-0.1,0.2-0.1c2.7-0.4,5.1-1.4,7.1-2.9c-1.8,1.3-4,2.2-6.4,2.7
			c0,0,0,0-0.1,0c-0.1,0-0.2,0-0.3-0.1c-0.1-0.1-0.1-0.3-0.1-0.4c0.3-0.8,0.7-1.6,1-2.4c0.6-1.3,1.2-2.6,1.6-4.1
			c1.7-5.1,2.1-10.5,2.5-15.8l0.1-0.9c0.8-9.8,0.8-19.2,0.8-27.1c0,0,0-0.1,0-0.1c-0.2-0.8-0.4-1.5-0.6-2.2l0-0.1
			c-0.6-2.2-1.3-4.5-1.7-6.8c0,0,0-0.1-0.1-0.1c0,0,0,0,0,0c-1.8-2.5-2.2-8.6-2.5-11.5c0-0.6-0.1-1.2-0.1-1.4
			c-0.2-1.5-0.1-2.5,0.1-3.3c0-0.2,0.2-0.3,0.4-0.3c0,0,0,0,0,0c0.2,0,0.3,0.1,0.4,0.3c1,5.1,3.1,10.1,5.2,14.8
			c1.9,4.3,3.8,8.8,4.9,13.4c1.4,5.7,2.2,10.6,2.7,15c-0.4-5.2-1.4-10.6-3-17c-1.1-4.2-2.9-8.3-4.7-12.2c-2.1-4.8-4.4-9.8-5.3-15
			c0-0.1,0-0.3,0.2-0.4c0,0,0,0,0.1,0c0.4-0.4,1-0.7,1.9-1c2.2-0.7,3.9-1.2,5.7-1.2c0.2,0,0.3,0,0.5,0c0,0,0,0,0,0
			c0.1,0,0.1,0,0.1,0c0.3-0.2,0.7-0.4,1-0.6c1.4-0.8,2.8-1.6,4.1-2.8c0.3-0.3,0.6-0.6,0.8-0.9c0.5-0.6,1-1.2,1.8-1.4
			c0.5-0.2,1-0.3,1.4-0.3c0.9,0,1.6,0.4,2.1,1.1c0.3,0.4,0.4,0.9,0.5,1.3c0.1,0.3,0.1,0.7,0.1,1c0.2,1.7,0,3.6-0.2,5.4
			c-0.1,0.9-0.2,1.8-0.2,2.5c0,2-0.2,4.2-0.4,6.5c0,0,0,0.1,0,0.1c0.4,2.6,0.9,5.3,1.4,7.8c1,5.3,2,10.9,2.1,16.4
			c0.1,6.8-1.7,12.5-3.6,18.2c-0.4,1.5-0.8,3.1-1.2,4.6c-1.3,4.7-2.6,9.6-3.5,14.4c0,0,0,0.1,0,0.1
			C709.4,570.2,708.7,573.3,708.6,574.3z M678.4,598.9c1.5,0,2.6-0.1,3-0.2c3.5-0.4,6.8-1.5,10-2.5c3.6-1.1,7.2-2.3,11-2.6
			c0.6-0.1,1.3-0.1,1.9-0.1l0.1,0c2.3,0,5-0.1,6.8-2.1c3.1-3.4,1.2-7.6-0.7-11.6l0-0.1c-0.5-1.1-1.1-2.2-1.5-3.3c0-0.1,0-0.1,0-0.2
			c0.7-6.9,2.6-14,4.4-20.8l0.1-0.2c0.4-1.5,0.8-2.9,1.2-4.4c2-5.8,3.7-11.5,3.6-18.4c-0.1-5.6-1.1-11.1-2.1-16.5
			c-0.5-2.6-1-5.2-1.4-7.8c0,0,0-0.1,0-0.1c0.2-2.3,0.4-4.4,0.4-6.4c0-0.7,0.1-1.5,0.2-2.4c0.2-1.5,0.3-3.3,0.2-4.9
			c0-0.2,0.1-0.4,0.3-0.4c0.6-0.1,1-0.3,1.3-0.5c0.8-0.6,1.4-1.8,1.8-2.7l0.1-0.2c0.3-0.6,0.5-1.3,0.7-2.1c0-0.1,0.1-0.3,0.3-0.3
			c1.9-0.5,3.2-1.3,4-2.5c0.6-0.9,0.9-2,0.8-3.5c0-0.1,0.1-0.3,0.2-0.4c4.4-2.7,2.9-10.3,1.9-15.4c-0.2-1.1-0.4-2.1-0.5-2.9
			c-1.6-11.7-5-22.1-8.6-33.1l-0.8-2.4c0,0,0-0.1,0-0.1c0.3-4.4,0.4-9.1,0.3-14.5c0,0,0-0.1,0-0.1c1-4,1.3-8.5,1.7-12.7
			c0-0.4,0.1-0.8,0.1-1.2l0.1-0.7c0-0.1,0.1-0.2,0.2-0.3c0.1,0,0.1-0.1,0.2-0.1c0.1,0,0.1,0,0.2,0c0.1,0,0.2,0.1,0.3,0.1
			c0.3,0,0.5-0.1,0.6-0.3l0.4-0.9c1.2-2.5,1.3-2.7,3.2-3.2c0.6-0.2,1.5-0.4,2.8-0.8c0,0,0.1,0,0.1,0c0.1,0,0.2,0,0.3,0.1
			c0.1,0.1,0.2,0.2,0.1,0.4c0,0.2,0,0.3,0.1,0.4c0.1,0.1,0.1,0.1,0.2,0.1c0.4,0,1.3-0.7,2.7-1.8c1.5-1.2,2.1-3,2.7-4.7
			c0.1-0.3,0.1-0.6-0.2-0.8c-0.1-0.1-0.3-0.1-0.4-0.1c-0.1,0-0.1,0-0.2,0c0,0-0.1,0-0.1,0c0,0-0.1,0-0.1,0c-3.5-1.4-4.9-3.3-4-5.9
			c0.1-0.7,0.3-1.4,0.4-2.1l0-0.1c0.1-0.6,0.2-1.2,0.3-1.7c0-0.2,0.1-0.5,0.1-0.7c0-0.2,0.1-0.3,0.3-0.3c0,0,0.1,0,0.1,0
			c0.1,0,0.3,0.1,0.3,0.2c0.5,0.7,0.9,1.3,1.3,1.6c0.1,0.1,0.2,0.1,0.3,0.1c0.1,0,0.1,0,0.2,0c0.2-0.1,0.4-0.3,0.5-0.5
			c0.7-2.1,0.4-4.8-0.8-8.3c-0.4-1.2-1-2.2-1.7-3c-0.3-0.3-0.8-0.7-1.5-1.2c-0.6-0.4-1.2-0.9-1.7-1.3c-0.1-0.1-0.2-0.2-0.1-0.4
			c0-0.1,0.2-0.2,0.3-0.3c0.7-0.1,1.6-0.4,2.2-1c1.6-1.7,2-4.2,2.1-5.5c0-0.3-0.2-0.6-0.5-0.7c-0.1,0-0.1,0-0.2,0
			c-0.3,0-0.5,0.1-0.6,0.4c0,0-0.1,0.1-0.1,0.2c0,0,0,0.1,0,0.1c-0.1,0.1-0.1,0.2-0.2,0.3l0,0.1c-0.1,0.3-0.3,0.6-0.5,0.8
			c0,0,0,0-0.1,0.1c-0.1,0.3-0.3,0.5-0.5,0.5c-0.1,0-0.2,0-0.3,0c-0.3,0-0.8-0.2-1.3-0.5c0,0-0.1,0-0.1,0c0,0-0.1,0-0.1,0
			c-0.5,0.2-0.9,0.3-1.2,0.3c-0.2,0-0.4,0-0.5-0.1c-0.3-0.1-0.5-0.4-0.6-0.9c0,0,0-0.1,0-0.1c-1.3-1.8-0.1-4.4,0.7-6.3l0.3-0.7
			c0-0.1,0.1-0.2,0.2-0.2c0,0,0.1,0,0.1,0c0.1,0,0.2,0,0.2,0.1c0.5,0.3,0.9,0.7,1.2,1.2c0.4,0.5,0.5,1.1,0.7,1.6
			c0.2,0.5,0.3,1,0.6,1.5c0.1,0.1,0.2,0.3,0.5,0.3c0,0,0.1,0,0.1,0c0.2,0,0.4-0.1,0.5-0.2c1.2-1.5,1.6-4,1.1-6.6
			c-0.2-1.1-0.6-1.8-1.2-2.4c-0.4-0.4-0.8-0.8-1.3-1.2l0,0c-0.4-0.3-0.7-0.6-1.1-0.9c-0.1-0.1-0.1-0.3-0.1-0.4
			c0.1-0.1,0.2-0.2,0.3-0.2c0.8-0.1,1.7-0.2,2.5-0.8c1.2-1,1.9-2.9,2.4-4.3c0,0,0-0.1,0-0.1c0.3-0.4,0.4-0.9,0.5-1.5
			c0,0,0-0.1,0-0.1c0-0.1,0-0.1,0-0.1c0-0.3-0.2-0.6-0.5-0.7c0,0-0.1,0-0.1,0c-0.3,0-0.6,0.2-0.7,0.5l-0.2,0.5
			c-0.1,0.4-0.2,0.7-0.4,1.1c0,0,0,0.1,0,0.1c-0.3,0.4-0.9,0.6-1.5,0.7c-0.1,0-0.2,0-0.2,0c-1.4,0-1.9-1.2-2.2-2.3
			c-0.3-1.3-0.1-2.6,0.1-4l0-0.2c0-0.1,0.1-0.3,0.3-0.3c2-0.6,4.3-1.8,4.5-5.4c0-0.3-0.2-0.5-0.4-0.6c-0.1,0-0.1,0-0.2,0
			c-0.1,0-0.3,0-0.4,0.1c-0.1,0-0.1,0.1-0.2,0.1c0,0,0,0,0,0c-1.9,0-3.1-0.4-3.7-1.2c-0.4-0.5-0.5-1.3-0.3-2.2c0-0.3,0-0.6,0-0.8
			l0-0.1c0-0.2,0-0.4,0-0.6c-0.1-1.3-0.4-2.8-0.8-4.1c-0.6-2.2-1.4-4.1-2.6-5.8c-1.8-2.5-3.8-4.2-6-5c-0.1,0-0.1-0.1-0.2-0.1
			c-2.3-2.7-6.1-4.5-10.2-4.9c-0.4,0-0.9,0-1.4,0c-4.1,0-12.5,0.8-15.1,3.9c0,0-0.1,0.1-0.1,0.1c-4.1,2-7.2,6.1-8.1,10.6
			c0,0,0,0.1,0,0.1c-0.4,0.8-0.9,1.5-1.7,2.1c-0.7,0.5-1.6,0.8-2.5,1.2c-0.9,0.3-1.9,0.7-2.7,1.3c-0.6,0.4-0.9,1-0.9,1.6
			c0,0.9,0.5,1.8,1.7,2.9c0.1,0.1,0.2,0.3,0.1,0.5c-0.2,0.5-0.5,0.9-0.9,1.4c-0.3,0.5-0.5,0.9-0.5,1.4c0,0.3,0.1,0.6,0.2,0.8
			c0.1,0.1,0.1,0.3,0,0.4c-0.4,0.5-0.6,1-0.6,1.5c0,0.4,0,0.7,0.2,1c0,0.1,0,0.3,0,0.4c-1.1,1.6-2.1,3.9-0.8,5.8
			c1.2,1.9,4,2.1,6.2,2.1c0.1,0,0.2,0,0.2,0.1c0.1,0.1,0.3,0.2,0.4,0.3c0.3,0.2,0.6,0.4,0.9,0.6c2.9,2.7,3.3,4.2,2.9,5.7
			c0,0.1-0.1,0.2-0.2,0.3c0,0-0.1,0-0.1,0c-0.1,0-0.2,0-0.2-0.1l-0.2-0.2c-0.4-0.3-0.8-0.6-1.2-0.9c-3.4-2.5-6.7-4.9-11.2-6.2
			l-0.4-0.1c-1.4-0.4-3.3-0.9-4.9-1c-0.1,0-0.3-0.1-0.3-0.2c-0.2-0.4-0.4-0.7-0.6-1c-1.4-1.9-3.4-3.1-5.3-4.3
			c-1.3-0.8-2.6-1.6-3.7-2.6c-1.8-1.6-3.6-3.5-5.2-5.2c-1.4-1.5-2.9-3-4.4-4.5c0,0-0.1-0.1-0.1-0.1c-2.7-5.1-7.6-9.1-12-12.7
			l-1.1-0.9c-1.7-1.4-3.5-2.5-5.2-3.7c-2-1.3-4-2.6-5.9-4.3l-2.5-2.2c-2-1.7-4-3.5-6.2-5.3c0,0-0.1-0.1-0.1-0.1
			c-0.2-0.5-0.5-1-0.8-1.4c-1-1.3-2.4-2.8-3.9-3.9c-0.6-0.5-1.3-0.9-2-1.3c-1.1-0.7-2.1-1.3-2.9-2.2l-0.8-0.9
			c-0.8-0.9-1.6-1.8-2.4-2.6c0,0-0.1-0.1-0.1-0.1c-2.8-6-5.3-9.5-7-9.8c-0.1,0-0.2,0-0.2,0c-0.3,0-0.6,0.1-0.9,0.4
			c-1.1,1.1,0.7,3.9,1.9,5.7c0.4,0.6,0.6,0.9,0.7,1.1c1,2.2,1.5,4.3,1.9,6.6c0,0.2,0,0.3-0.2,0.4c0,0-0.2,0.1-0.2,0.1
			c-0.3,0.2-0.6,0.3-0.9,0.5c-0.9,0.4-1.9,0.9-2.6,1.8c-0.6,0.7-0.8,1.4-0.6,2.3c0.1,0.3,0.2,0.6,0.4,1c0.1,0.1,0.1,0.3,0,0.4
			c-0.4,0.5-0.5,1.1-0.3,1.8c0.1,0.3,0.3,0.6,0.6,0.8c0.1,0.1,0.2,0.3,0.1,0.5c-0.4,0.7-0.3,1.4,0.1,2c0.3,0.4,1,0.8,1.8,1
			c0.1,0,0.2,0.1,0.3,0.2c0.2,0.5,0.5,0.9,0.9,1.2c0.4,0.2,0.9,0.3,1.4,0.3c1.2,0,2.6-0.5,3.9-0.9c0,0,0.1,0,0.1,0
			c0.1,0,0.2,0,0.3,0.1c0.4,0.4,0.8,0.8,1.1,1.1l0.4,0.4c0.2,0.2,0.4,0.5,0.6,0.8c0.4,0.5,0.8,1,1.3,1.3c0.8,0.7,1.8,0.9,2.6,1.1
			c0.8,0.1,1.6,0.3,2.4,0.5c0.1,0,0.2,0.1,0.3,0.2c0.9,1.8,1.6,2.7,3.4,4.4c2.3,2.3,4.3,5.1,6.1,7.8c0.8,1.2,1.7,2.5,2.6,3.6
			c0.3,0.4,0.6,0.8,0.8,1.1l0.1,0.1c1.5,2.1,2.9,4,5.2,5.6c1.1,0.8,2.4,1.6,3.6,2.3c2.1,1.3,4.2,2.6,6,4.2c0,0,0.1,0.1,0.1,0.2
			c1.8,5,5.5,9.6,10.3,13.1l1.4,1c3.6,2.7,7,5.2,10.1,8.6c0.4,0.5,0.7,0.9,1,1.4c0.2,0.3,0.3,0.4,0.5,0.6c0.1,0.1,0.1,0.2,0.1,0.2
			c-0.1,1.9,0,4.1,1.4,5.8c1.1,1.2,2.7,2.1,3.9,2.6c0.2,0.1,0.3,0.3,0.2,0.5c-1.5,5.4-1.3,12.5-1.1,18.8c0.1,3.2,0.2,6.3,0,8.9
			c-0.2,2.9-0.7,6.6-1.3,10.4c-1.4,9-3,19.1-0.4,25.3c0.2,0.4,0.3,0.7,0.5,1c0,0.1,0,0.1,0,0.2c0,0.6,0.1,1.2,0.1,1.9
			c0.2,6.8-0.6,13.2-1.4,19.2c-0.1,0.6-0.2,1.3-0.3,1.9c-0.6,3.8-1.1,7.4-0.4,10.8c0,0.1,0,0.1,0,0.2c-0.7,2.3-1,5-1.3,7.5
			c-0.2,2-0.5,4.1-0.9,6c-0.2,0.7-0.3,1.4-0.5,2.2l0,0.2c-0.9,3.9-1.8,7.9-2,11.7c-0.1,1.8,0.3,3.1,1.1,4c1.2,1.3,3.2,1.6,4.8,1.8
			c0.2,0,0.3,0.2,0.4,0.4c0.1,2,0.8,3.4,3.8,3.8c3.4,0.5,7.4,1,11.3,1c0.2,0,0.4,0,0.6,0c0,0,0.2,0,0.2,0c0.2,0,0.3,0.1,0.4,0.3
			c0.2,1.1,0.5,2.2,0.8,3.1c0.2,0.6,0.4,1.2,0.5,1.7l0.1,0.5c0.7,3,1.2,5.4,2.3,7.8c0,0,0,0.1,0,0.1c0.1,1.9,0.3,3.8,0.4,5.7
			c0.4,5.8,0.8,11.8,1.3,17.6l0,0.2c0.7,7.7,2,20.5-0.8,28.8c0,0,0,0.1-0.1,0.1c-1.9,2.3-4.1,4.5-7.1,5.4c-1.8,0.5-3.7,0.7-5.6,0.8
			c-1.7,0.1-3.5,0.3-5.2,0.7c-5.6,1.3-8.7,3.5-9,6.1c-0.1,1,0.2,1.8,0.9,2.5c1.6,1.6,5.1,2.4,10.9,2.4c1.9,0,4.1-0.1,6.6-0.3
			c0,0,0,0,0,0c0.2,0,0.3,0.1,0.4,0.3c0,0.2-0.1,0.4-0.2,0.4c-0.2,0.1-0.4,0.2-0.5,0.2c-0.3,0.1-0.6,0.2-0.9,0.4
			c-0.3,0.1-0.6,0.3-1,0.4c-2.6,1.1-6.1,2.6-6,6.1c0,1.4,0.6,2.6,1.6,3.6C672,598.5,675.7,598.9,678.4,598.9z"/>
		<path style="clip-path:url(#SVGID_00000161631186931586198370000012812861955128833411_);fill:#5967B0;" d="M687.3,404.2
			c1,0.7,2,1.3,3.1,2c-1.1-0.7-2.1-1.3-2.9-1.9C687.4,404.3,687.4,404.3,687.3,404.2"/>
		
			<path style="clip-path:url(#SVGID_00000161631186931586198370000012812861955128833411_);fill:none;stroke:#5967B0;stroke-width:0.8;stroke-linecap:round;stroke-linejoin:round;stroke-miterlimit:10;" d="
			M687.3,404.2c1,0.7,2,1.3,3.1,2c-1.1-0.7-2.1-1.3-2.9-1.9C687.4,404.3,687.4,404.3,687.3,404.2z"/>
		<path style="clip-path:url(#SVGID_00000161631186931586198370000012812861955128833411_);fill:#5967B0;" d="M671.3,379.2
			c-0.4-1.5-0.7-3.1-1-4.6c0.5,2.1,1,4.2,1.5,6.3C671.6,380.3,671.4,379.7,671.3,379.2"/>
		
			<path style="clip-path:url(#SVGID_00000161631186931586198370000012812861955128833411_);fill:none;stroke:#5967B0;stroke-width:0.8;stroke-linecap:round;stroke-linejoin:round;stroke-miterlimit:10;" d="
			M671.3,379.2c-0.4-1.5-0.7-3.1-1-4.6c0.5,2.1,1,4.2,1.5,6.3C671.6,380.3,671.4,379.7,671.3,379.2z"/>
		<path style="clip-path:url(#SVGID_00000161631186931586198370000012812861955128833411_);fill:#5967B0;" d="M681.8,399.8
			c-2.4-2.6-4.5-5.5-6.3-8.9c1,2.3,2.4,4.5,4.1,6.7C680.2,398.3,680.9,399,681.8,399.8"/>
		
			<path style="clip-path:url(#SVGID_00000161631186931586198370000012812861955128833411_);fill:none;stroke:#5967B0;stroke-width:0.8;stroke-linecap:round;stroke-linejoin:round;stroke-miterlimit:10;" d="
			M681.8,399.8c-2.4-2.6-4.5-5.5-6.3-8.9c1,2.3,2.4,4.5,4.1,6.7C680.2,398.3,680.9,399,681.8,399.8z"/>
		
			<line style="clip-path:url(#SVGID_00000161631186931586198370000012812861955128833411_);fill:none;stroke:#5967B0;stroke-miterlimit:10;" x1="816.9" y1="572.9" x2="709.2" y2="572.9"/>
	</g>
</g>
<g id="Layer_1">
	<g>
		<defs>
			<rect id="SVGID_00000049219894329216036890000017809445486988616894_" x="-227.7" y="31.6" width="1315.3" height="217.9"/>
		</defs>
		<clipPath id="SVGID_00000106861174223117307140000011373256094887936162_">
			<use xlink:href="#SVGID_00000049219894329216036890000017809445486988616894_"  style="overflow:visible;"/>
		</clipPath>
		
			<path style="clip-path:url(#SVGID_00000106861174223117307140000011373256094887936162_);fill:none;stroke:#9AD19F;stroke-linejoin:round;stroke-miterlimit:10;" d="
			M1087.6,247c0,0-794.1-0.1-811.4-0.5c-17.3-0.4-69.7,1.1-69.7,1.1s13.1,2.6,33.5,0.6c20.4-2.1,25.9-16.6,28.2-28.9
			c2.3-12.3-7.6-26.8-14.5-33.3c-6.9-6.5-7,2.1-18.7,2.3c-11.7,0.2-20.5-11.2-26.8-6.1c-6.3,5.1-9.1,12.1-5.5,7
			c3.6-5.1,9.5-8.5,20.6-5.6c11.1,2.9,32.3-0.4,20.1-11.4c-12.2-11-11.4-21.8-11.4-21.8s-0.7-22.8,0.7-27.1c1.4-4.4,1-7-3.4-5.4
			c-4.4,1.6-10.9,0.5-7.6,1.9c3.3,1.4,10.4,1.4,13.9-1.5c3.4-2.9-0.4-4.5-11-4.9c-12.4-0.5-15.4,4.3-11.9,6c3.4,1.7,3,6.8,3,6.8
			s0.3,18.6,0.1,22.6c-0.2,4,1.5,12.1-13.3,27.4c-14.8,15.3-21.4,31.5-20.6,45c0.8,13.5,13.8,19.6-0.8,20.7
			c-14.6,1.1-46.5,2.6-37.6,5.3c9,2.7,34.8,1.6,53.9-0.2c19.1-1.8,6.1-27.9,6.1-27.9s-11.5-41.4-18.9-62
			c-7.4-20.6-11.7-43.1-11.7-43.1s-0.4-30.3,0.8-35.4c1.3-5.1-1.4-7.2-8.6-5.4c-7.2,1.8-30.8,1.3-29.3,1.5
			c1.5,0.2,33.3,2.3,41.2-1.7c7.9-4-1.7-7.3-8.8-8.4c-7.1-1.1-28.5-0.8-41.2-0.2c-12.7,0.5-12.8,8.2-6.7,10.2c6.1,2,5.3,7.2,5.3,7.2
			s-0.1,24.8,0.1,34.2c0.3,9.4-4.8,10.4-5.1,27.3c-0.3,16.9,8,25.2,14.4,17.3c6.4-7.9,17.7-5.8,28-5.1c10.3,0.6,10.9-23.7,10.9-23.7
			s-0.3,3.3-0.6,13.2c-0.3,9.9-6.9,17.7-21.3,13.9c-14.4-3.8-17.3,16.1-28,14.1c-10.6-2.1-6.8-24.3-6.8-24.3S98.5,213,94.6,226.8
			c-3.9,13.8,5.2,19.7,14.7,20.3c9.6,0.6,18.6,0,18.5-4.1c-0.1-4.1-3.4-6.7-10.5-7.4c-7.1-0.6-5.7-9.4-5.7-9.4l0.5-68.9
			c0,0-0.2-53.6,0.1-62.5c0.4-8.9-4.9-6.2-8.8-3.7c-3.8,2.5-10.2-0.4-10.2-0.4s4.4,3.1,7.9-1.6c3.5-4.7,11.1-3.2,11.1-3.2
			s0.6-38,0.7-44.6c0.1-6.6-21.1-2.4-21.1-2.4s0.8-0.1,9.6-0.1c8.8,0,11.6,0.6,15.7-4c4-4.6-13.8-2-23.9-2.7
			c-10-0.6-11.6,4.3-7.7,5.1c3.9,0.9,3.6,7,3.6,7l-0.3,65.6l-0.7,111.7c0,0,1,13.6-2.9,13.7c-13.3,0.5-16.2,1.9-16,7.7
			c0.2,3.9,10,6.5,9.8,0.4c-0.3-6.1,0.5-11.5-3.6-14.1c-4.1-2.6-1-31.9-1.4-39.4c-0.4-7.5-3.9-7.3-13.3-7.5
			c-9.4-0.1-115.4,0.4-115.4,0.4s-4.1-0.4-3.8,5.5c0.3,5.9,0.3,23.7,0.3,23.7s-3.1,6.7,12.8,6c16-0.7,110.2,0.4,110.2,0.4
			s2.6,2.1,2.1,6.8c-0.5,4.7-5.5,6-4.3,10.9s-2,4.4-15.3,4.4s-93.6-1.3-93.6-1.3s0.3-3.7,0-6.2c-0.3-2.5-4.4-1.3-4.1-6
			c0.3-4.7,0.3-33.4,0.3-33.4s-0.6-5.5,5.9-5c6.5,0.5,106.2,0.3,106.2,0.3s4.6-0.5,5,5.8c0.3,6.3-0.3,15.1-0.3,15.1s0.6,2.1-9,2.3
			c-9.6,0.2-104,0-104,0l101.9,1.6l-0.1,14.4c0,0-0.1,8.9-6,9.6c-6.1,0.7-12.2,0.9-12.6-9.7c-0.3-10.7,0.2-78.8,0.2-78.8
			s1.2-5-1-5.4c-2.2-0.4-2.2-6.5-1.9-9.8c0.4-3.3,6.4-3.5,13.5-3.3c7,0.1,9.7-0.5,10.3,3.3c0.5,3.8,0.9,8.1-0.6,8.8
			c-1.1,0.6-1.9,0-2.1,2.6c0,0.4,0.8,5.9-14.7,1.9c-0.6-0.2,14.5-1.3,14.6,1.9c0.3,6.9-0.5,60.1-0.5,60.1s0.6,6.3-8.6,6.2
			c-9.2-0.1-29.1-1.2-29.1,5.3c0,6.5,0.5,17.1-10.2,16.8c-10.6-0.3-9.5-8.3-9.6-15c0-7.5,0.4-75.8,0.4-75.8s0.3-3.6-1.1-4
			c-1.4-0.4-1.7-2-1.8-5.1c-0.1-3.1,0.3-7.2,4.4-7.4c4.1-0.2,18.8,0.3,18.8,0.3s3-0.8,3.1,3.4c0.2,4.2,0.5,8.1-1.4,8.3
			c-1.1,0.1-2.3,1.4-2.2,3.7c0.3,3.9-18.2,0.7-15.5,0.4c13.7-1.5,15.5,0.6,15.6,6.2c0.2,6.2-0.3,54.8-0.3,54.8s-3.4,8.3-19.5,7.9
			c-16.1-0.4-18,2.2-17.9,7.1c0.2,4.9-1,14.6-10.8,14.5c-11.1-0.1-10.2-14.5-10.2-14.5l0.1-78.4c0,0,0.6-1.4-1.4-1.4
			c-1.9,0.1-1.9-3.5-1.8-6.9c0-3.7,1.3-5,6.2-5.1c5-0.1,16.5,0.3,16.5,0.3s4.7,0.1,4.6,4.7c-0.1,7.7-0.6,7.7-2.1,7.9
			c-1.5,0.1-1.4,2.2-1.4,2.2c-0.1,4.1-8.2,2.3-15.1,1.5c-2-0.3,15.2-2.5,15.1,2.8c-0.3,16.9,0.3,57.8,0.3,57.8s1.8,7.1-9.7,7
			c-11.5-0.1-27.9,3.4-28,9.6c-0.1,6.2-5.2,6-4.8,11.1s-4.2,9.3,10.4,9.7s48.5,0.9,48.5,0.9l-224-1.3 M1087.6,247
			c0,0-794.1-0.1-811.4-0.5c-17.3-0.4-69.7,1.1-69.7,1.1s13.1,2.6,33.5,0.6c20.4-2.1,25.9-16.6,28.2-28.9
			c2.3-12.3-7.6-26.8-14.5-33.3c-6.9-6.5-7,2.1-18.7,2.3c-11.7,0.2-20.5-11.2-26.8-6.1c-6.3,5.1-9.1,12.1-5.5,7
			c3.6-5.1,9.5-8.5,20.6-5.6c11.1,2.9,32.3-0.4,20.1-11.4c-12.2-11-11.4-21.8-11.4-21.8s-0.7-22.8,0.7-27.1c1.4-4.4,1-7-3.4-5.4
			c-4.4,1.6-10.9,0.5-7.6,1.9c3.3,1.4,10.4,1.4,13.9-1.5c3.4-2.9-0.4-4.5-11-4.9c-12.4-0.5-15.4,4.3-11.9,6c3.4,1.7,3,6.8,3,6.8
			s0.3,18.6,0.1,22.6c-0.2,4,1.5,12.1-13.3,27.4c-14.8,15.3-21.4,31.5-20.6,45c0.8,13.5,13.8,19.6-0.8,20.7
			c-14.6,1.1-46.5,2.6-37.6,5.3c9,2.7,34.8,1.6,53.9-0.2c19.1-1.8,6.1-27.9,6.1-27.9s-11.5-41.4-18.9-62
			c-7.4-20.6-11.7-43.1-11.7-43.1s-0.4-30.3,0.8-35.4c1.3-5.1-1.4-7.2-8.6-5.4c-7.2,1.8-30.8,1.3-29.3,1.5
			c1.5,0.2,33.3,2.3,41.2-1.7c7.9-4-1.7-7.3-8.8-8.4c-7.1-1.1-28.5-0.8-41.2-0.2c-12.7,0.5-12.8,8.2-6.7,10.2c6.1,2,5.3,7.2,5.3,7.2
			s-0.1,24.8,0.1,34.2c0.3,9.4-4.8,10.4-5.1,27.3c-0.3,16.9,8,25.2,14.4,17.3c6.4-7.9,17.7-5.8,28-5.1c10.3,0.6,10.9-23.7,10.9-23.7
			s-0.3,3.3-0.6,13.2c-0.3,9.9-6.9,17.7-21.3,13.9c-14.4-3.8-17.3,16.1-28,14.1c-10.6-2.1-6.8-24.3-6.8-24.3S98.5,213,94.6,226.8
			c-3.9,13.8,5.2,19.7,14.7,20.3c9.6,0.6,18.6,0,18.5-4.1c-0.1-4.1-3.4-6.7-10.5-7.4c-7.1-0.6-5.7-9.4-5.7-9.4l0.5-68.9
			c0,0-0.2-53.6,0.1-62.5c0.4-8.9-4.9-6.2-8.8-3.7c-3.8,2.5-10.2-0.4-10.2-0.4s4.4,3.1,7.9-1.6c3.5-4.7,11.1-3.2,11.1-3.2
			s0.6-38,0.7-44.6c0.1-6.6-21.1-2.4-21.1-2.4s0.8-0.1,9.6-0.1c8.8,0,11.6,0.6,15.7-4c4-4.6-13.8-2-23.9-2.7
			c-10-0.6-11.6,4.3-7.7,5.1c3.9,0.9,3.6,7,3.6,7l-0.3,65.6l-0.7,111.7c0,0,1,13.6-2.9,13.7c-13.3,0.5-16.2,1.9-16,7.7
			c0.2,3.9,10,6.5,9.8,0.4c-0.3-6.1,0.5-11.5-3.6-14.1c-4.1-2.6-1-31.9-1.4-39.4c-0.4-7.5-3.9-7.3-13.3-7.5
			c-9.4-0.1-115.4,0.4-115.4,0.4s-4.1-0.4-3.8,5.5c0.3,5.9,0.3,23.7,0.3,23.7s-3.1,6.7,12.8,6c16-0.7,110.2,0.4,110.2,0.4
			s2.6,2.1,2.1,6.8c-0.5,4.7-5.5,6-4.3,10.9s-2,4.4-15.3,4.4s-93.6-1.3-93.6-1.3s0.3-3.7,0-6.2c-0.3-2.5-4.4-1.3-4.1-6
			c0.3-4.7,0.3-33.4,0.3-33.4s-0.6-5.5,5.9-5c6.5,0.5,106.2,0.3,106.2,0.3s4.6-0.5,5,5.8c0.3,6.3-0.3,15.1-0.3,15.1s0.6,2.1-9,2.3
			c-9.6,0.2-104,0-104,0l101.9,1.6l-0.1,14.4c0,0-0.1,8.9-6,9.6c-6.1,0.7-12.2,0.9-12.6-9.7c-0.3-10.7,0.2-78.8,0.2-78.8
			s1.2-5-1-5.4c-2.2-0.4-2.2-6.5-1.9-9.8c0.4-3.3,6.4-3.5,13.5-3.3c7,0.1,9.7-0.5,10.3,3.3c0.5,3.8,0.9,8.1-0.6,8.8
			c-1.1,0.6-1.9,0-2.1,2.6c0,0.4,0.8,5.9-14.7,1.9c-0.6-0.2,14.5-1.3,14.6,1.9c0.3,6.9-0.5,60.1-0.5,60.1s0.6,6.3-8.6,6.2
			c-9.2-0.1-29.1-1.2-29.1,5.3c0,6.5,0.5,17.1-10.2,16.8c-10.6-0.3-9.5-8.3-9.6-15c0-7.5,0.4-75.8,0.4-75.8s0.3-3.6-1.1-4
			c-1.4-0.4-1.7-2-1.8-5.1c-0.1-3.1,0.3-7.2,4.4-7.4c4.1-0.2,18.8,0.3,18.8,0.3s3-0.8,3.1,3.4c0.2,4.2,0.5,8.1-1.4,8.3
			c-1.1,0.1-2.3,1.4-2.2,3.7c0.3,3.9-18.2,0.7-15.5,0.4c13.7-1.5,15.5,0.6,15.6,6.2c0.2,6.2-0.3,54.8-0.3,54.8s-3.4,8.3-19.5,7.9
			c-16.1-0.4-18,2.2-17.9,7.1c0.2,4.9-1,14.6-10.8,14.5c-11.1-0.1-10.2-14.5-10.2-14.5l0.1-78.4c0,0,0.6-1.4-1.4-1.4
			c-1.9,0.1-1.9-3.5-1.8-6.9c0-3.7,1.3-5,6.2-5.1c5-0.1,16.5,0.3,16.5,0.3s4.7,0.1,4.6,4.7c-0.1,7.7-0.6,7.7-2.1,7.9
			c-1.5,0.1-1.4,2.2-1.4,2.2c-0.1,4.1-8.2,2.3-15.1,1.5c-2-0.3,15.2-2.5,15.1,2.8c-0.3,16.9,0.3,57.8,0.3,57.8s1.8,7.1-9.7,7
			c-11.5-0.1-27.9,3.4-28,9.6c-0.1,6.2-5.2,6-4.8,11.1s-4.2,9.3,10.4,9.7s48.5,0.9,48.5,0.9l-224-1.3"/>
	</g>
</g>
</svg>
